<svg width="112" height="20" viewBox="0 0 112 20" fill="none" xmlns="http://www.w3.org/2000/svg">
<path d="M7.40666 8.526C7.40666 9.306 7.151 9.93433 6.63966 10.411C6.12833 10.8877 5.36133 11.126 4.33866 11.126H2.50566V15H1.59566V5.913H4.33866C5.35266 5.913 6.11533 6.15133 6.62666 6.628C7.14666 7.10467 7.40666 7.73733 7.40666 8.526ZM4.33866 10.346C5.76 10.346 6.47066 9.73933 6.47066 8.526C6.47066 7.91933 6.30166 7.46 5.96366 7.148C5.62566 6.836 5.084 6.68 4.33866 6.68H2.50566V10.346H4.33866ZM12.0406 15.104C11.3732 15.104 10.7709 14.9567 10.2336 14.662C9.70489 14.3587 9.28455 13.934 8.97255 13.388C8.66922 12.8333 8.51755 12.1877 8.51755 11.451C8.51755 10.7143 8.67355 10.073 8.98555 9.527C9.29755 8.97233 9.72222 8.54767 10.2596 8.253C10.7969 7.94967 11.3992 7.798 12.0666 7.798C12.7339 7.798 13.3362 7.94967 13.8736 8.253C14.4196 8.54767 14.8442 8.97233 15.1476 9.527C15.4596 10.073 15.6156 10.7143 15.6156 11.451C15.6156 12.179 15.4596 12.8203 15.1476 13.375C14.8356 13.9297 14.4066 14.3587 13.8606 14.662C13.3146 14.9567 12.7079 15.104 12.0406 15.104ZM12.0406 14.311C12.5086 14.311 12.9419 14.207 13.3406 13.999C13.7392 13.7823 14.0599 13.4617 14.3026 13.037C14.5539 12.6037 14.6796 12.075 14.6796 11.451C14.6796 10.827 14.5582 10.3027 14.3156 9.878C14.0729 9.44467 13.7522 9.124 13.3536 8.916C12.9549 8.69933 12.5216 8.591 12.0536 8.591C11.5856 8.591 11.1522 8.69933 10.7536 8.916C10.3549 9.124 10.0342 9.44467 9.79155 9.878C9.55755 10.3027 9.44055 10.827 9.44055 11.451C9.44055 12.075 9.55755 12.6037 9.79155 13.037C10.0342 13.4617 10.3506 13.7823 10.7406 13.999C11.1392 14.207 11.5726 14.311 12.0406 14.311ZM26.6344 7.902L24.4114 15H23.5014L21.5384 9.046L19.5754 15H18.6524L16.4294 7.902H17.3524L19.1204 14.077L21.1094 7.902H22.0194L23.9824 14.09L25.7374 7.902H26.6344ZM34.297 11.087C34.297 11.399 34.2883 11.6373 34.271 11.802H28.382C28.408 12.3393 28.538 12.7987 28.772 13.18C29.006 13.5613 29.3136 13.8517 29.695 14.051C30.0763 14.2417 30.4923 14.337 30.943 14.337C31.5323 14.337 32.0263 14.194 32.425 13.908C32.8323 13.622 33.101 13.2363 33.231 12.751H34.193C34.0196 13.4443 33.647 14.012 33.075 14.454C32.5116 14.8873 31.801 15.104 30.943 15.104C30.2756 15.104 29.6776 14.9567 29.149 14.662C28.6203 14.3587 28.2043 13.934 27.901 13.388C27.6063 12.8333 27.459 12.1877 27.459 11.451C27.459 10.7143 27.6063 10.0687 27.901 9.514C28.1956 8.95933 28.6073 8.53467 29.136 8.24C29.6646 7.94533 30.267 7.798 30.943 7.798C31.619 7.798 32.2083 7.94533 32.711 8.24C33.2223 8.53467 33.6123 8.93333 33.881 9.436C34.1583 9.93 34.297 10.4803 34.297 11.087ZM33.374 11.061C33.3826 10.5323 33.2743 10.0817 33.049 9.709C32.8323 9.33633 32.5333 9.05467 32.152 8.864C31.7706 8.67333 31.3546 8.578 30.904 8.578C30.228 8.578 29.6516 8.79467 29.175 9.228C28.6983 9.66133 28.434 10.2723 28.382 11.061H33.374ZM36.8719 9.163C37.0712 8.721 37.3745 8.37867 37.7819 8.136C38.1979 7.89333 38.7049 7.772 39.3029 7.772V8.721H39.0559C38.3972 8.721 37.8685 8.89867 37.4699 9.254C37.0712 9.60933 36.8719 10.203 36.8719 11.035V15H35.9619V7.902H36.8719V9.163ZM47.0938 11.087C47.0938 11.399 47.0852 11.6373 47.0678 11.802H41.1788C41.2048 12.3393 41.3348 12.7987 41.5688 13.18C41.8028 13.5613 42.1105 13.8517 42.4918 14.051C42.8732 14.2417 43.2892 14.337 43.7398 14.337C44.3292 14.337 44.8232 14.194 45.2218 13.908C45.6292 13.622 45.8978 13.2363 46.0278 12.751H46.9898C46.8165 13.4443 46.4438 14.012 45.8718 14.454C45.3085 14.8873 44.5978 15.104 43.7398 15.104C43.0725 15.104 42.4745 14.9567 41.9458 14.662C41.4172 14.3587 41.0012 13.934 40.6978 13.388C40.4032 12.8333 40.2558 12.1877 40.2558 11.451C40.2558 10.7143 40.4032 10.0687 40.6978 9.514C40.9925 8.95933 41.4042 8.53467 41.9328 8.24C42.4615 7.94533 43.0638 7.798 43.7398 7.798C44.4158 7.798 45.0052 7.94533 45.5078 8.24C46.0192 8.53467 46.4092 8.93333 46.6778 9.436C46.9552 9.93 47.0938 10.4803 47.0938 11.087ZM46.1708 11.061C46.1795 10.5323 46.0712 10.0817 45.8458 9.709C45.6292 9.33633 45.3302 9.05467 44.9488 8.864C44.5675 8.67333 44.1515 8.578 43.7008 8.578C43.0248 8.578 42.4485 8.79467 41.9718 9.228C41.4952 9.66133 41.2308 10.2723 41.1788 11.061H46.1708ZM48.3428 11.438C48.3428 10.71 48.4901 10.073 48.7848 9.527C49.0794 8.97233 49.4824 8.54767 49.9938 8.253C50.5138 7.94967 51.0988 7.798 51.7488 7.798C52.3728 7.798 52.9361 7.94967 53.4388 8.253C53.9414 8.55633 54.3098 8.95067 54.5438 9.436V5.38H55.4538V15H54.5438V13.414C54.3271 13.908 53.9718 14.3153 53.4778 14.636C52.9838 14.948 52.4031 15.104 51.7358 15.104C51.0858 15.104 50.5008 14.9523 49.9808 14.649C49.4694 14.3457 49.0664 13.9167 48.7718 13.362C48.4858 12.8073 48.3428 12.166 48.3428 11.438ZM54.5438 11.451C54.5438 10.879 54.4268 10.3763 54.1928 9.943C53.9588 9.50967 53.6381 9.176 53.2308 8.942C52.8321 8.708 52.3901 8.591 51.9048 8.591C51.4021 8.591 50.9514 8.70367 50.5528 8.929C50.1541 9.15433 49.8378 9.48367 49.6038 9.917C49.3784 10.3417 49.2658 10.8487 49.2658 11.438C49.2658 12.0187 49.3784 12.53 49.6038 12.972C49.8378 13.4053 50.1541 13.739 50.5528 13.973C50.9514 14.1983 51.4021 14.311 51.9048 14.311C52.3901 14.311 52.8321 14.194 53.2308 13.96C53.6381 13.726 53.9588 13.3923 54.1928 12.959C54.4268 12.5257 54.5438 12.023 54.5438 11.451ZM61.9956 9.475C62.2296 8.981 62.5893 8.578 63.0746 8.266C63.5686 7.954 64.1493 7.798 64.8166 7.798C65.4666 7.798 66.0473 7.94967 66.5586 8.253C67.0699 8.54767 67.4686 8.97233 67.7546 9.527C68.0493 10.073 68.1966 10.71 68.1966 11.438C68.1966 12.166 68.0493 12.8073 67.7546 13.362C67.4686 13.9167 67.0656 14.3457 66.5456 14.649C66.0343 14.9523 65.4579 15.104 64.8166 15.104C64.1406 15.104 63.5556 14.9523 63.0616 14.649C62.5763 14.337 62.2209 13.934 61.9956 13.44V15H61.0986V5.38H61.9956V9.475ZM67.2736 11.438C67.2736 10.8487 67.1566 10.3417 66.9226 9.917C66.6973 9.48367 66.3853 9.15433 65.9866 8.929C65.5879 8.70367 65.1373 8.591 64.6346 8.591C64.1493 8.591 63.7029 8.708 63.2956 8.942C62.8969 9.176 62.5806 9.50967 62.3466 9.943C62.1126 10.3763 61.9956 10.879 61.9956 11.451C61.9956 12.023 62.1126 12.5257 62.3466 12.959C62.5806 13.3923 62.8969 13.726 63.2956 13.96C63.7029 14.194 64.1493 14.311 64.6346 14.311C65.1373 14.311 65.5879 14.1983 65.9866 13.973C66.3853 13.739 66.6973 13.4053 66.9226 12.972C67.1566 12.53 67.2736 12.0187 67.2736 11.438ZM75.7211 7.902L71.5091 18.341H70.5601L71.9381 14.961L69.0261 7.902H70.0271L72.4451 13.96L74.7851 7.902H75.7211Z" fill="white"/>
<g clip-path="url(#clip0_3367_13158)">
<path d="M111.521 8.74015H106.646C106.434 8.73733 106.226 8.79726 106.049 8.91247C105.871 9.02769 105.73 9.19309 105.645 9.38808L103.891 13.4484C103.869 13.5064 103.86 13.5691 103.867 13.631C103.874 13.6929 103.896 13.7522 103.93 13.8038C103.965 13.8554 104.012 13.8976 104.066 13.9269C104.121 13.9562 104.182 13.9716 104.244 13.9718H106.033C106.245 13.9747 106.452 13.9148 106.63 13.7996C106.808 13.6844 106.948 13.5189 107.034 13.3239L107.926 11.2592H110.293C110.504 11.262 110.712 11.202 110.89 11.0868C111.068 10.9716 111.208 10.8062 111.293 10.6112L111.874 9.26497C111.897 9.20688 111.906 9.14395 111.899 9.0817C111.893 9.01946 111.871 8.9598 111.836 8.90798C111.801 8.85615 111.754 8.81374 111.699 8.78448C111.645 8.75522 111.583 8.73999 111.521 8.74015Z" fill="#00A84F"/>
<path d="M101.932 10.8769H106.477C106.674 10.8792 106.867 10.823 107.032 10.7153C107.197 10.6076 107.327 10.4532 107.406 10.2714L109.042 6.48677C109.062 6.43274 109.07 6.37454 109.063 6.3171C109.056 6.25966 109.036 6.20467 109.004 6.15678C108.972 6.1089 108.928 6.06953 108.878 6.042C108.828 6.01448 108.771 5.99962 108.714 5.99867H107.045C106.848 5.99634 106.655 6.05255 106.49 6.16024C106.325 6.26793 106.195 6.42234 106.116 6.60412L105.283 8.52848H103.076C102.88 8.52615 102.686 8.58236 102.521 8.69005C102.356 8.79775 102.226 8.95215 102.147 9.13393L101.956 9.57669L101.602 10.3888C101.582 10.443 101.574 10.5014 101.581 10.559C101.588 10.6166 101.608 10.6717 101.641 10.7196C101.673 10.7676 101.717 10.8069 101.767 10.8343C101.818 10.8616 101.875 10.8763 101.932 10.8769Z" fill="#00E751"/>
<path d="M106.646 8.74014C106.434 8.73732 106.227 8.79725 106.049 8.91246C105.871 9.02768 105.73 9.19308 105.645 9.38807L105.002 10.8747H106.474C106.671 10.877 106.864 10.8208 107.029 10.7131C107.195 10.6054 107.325 10.451 107.403 10.2693L108.064 8.73798L106.646 8.74014Z" fill="#049B24"/>
<path d="M96.385 2.42424C96.3264 2.29177 96.2756 2.1737 96.2277 2.06427C96.1409 2.00001 96.0408 1.95637 95.9348 1.9366C95.8288 1.91683 95.7198 1.92145 95.6159 1.95012C95.512 1.97878 95.4158 2.03075 95.3346 2.10213C95.2535 2.17351 95.1894 2.26246 95.1471 2.36232L93.5834 6.07569L95.7675 10.8344H93.4226C93.018 10.8347 92.6224 10.9548 92.285 11.1798C91.9476 11.4049 91.6834 11.7249 91.5251 12.1L90.4531 14.6413H97.4791L98.5733 17.0761C98.8713 17.7406 99.4617 18.3 100.297 18.3H103.46L96.385 2.42424Z" fill="url(#paint0_linear_3367_13158)"/>
<path d="M89.0444 17.1244L92.5206 8.88341L93.6691 6.16354L95.1156 2.73454C95.2088 2.51361 95.3741 2.33135 95.5841 2.21797C95.7942 2.10459 96.0363 2.06688 96.2706 2.11109C96.204 1.99429 96.1103 1.89549 95.9975 1.82312H96.004L95.994 1.81952C95.8532 1.73601 95.6738 1.70001 95.4115 1.70001H92.2755C91.4036 1.70001 90.9533 2.15212 90.6289 2.92388L84.2354 18.3H87.3421C88.1575 18.3 88.7528 17.7737 89.0444 17.1244Z" fill="white"/>
</g>
<defs>
<linearGradient id="paint0_linear_3367_13158" x1="88.8665" y1="5.73948" x2="116.531" y2="21.6521" gradientUnits="userSpaceOnUse">
<stop stop-color="#480067"/>
<stop offset="0.01" stop-color="#530F70"/>
<stop offset="0.04" stop-color="#77418E"/>
<stop offset="0.08" stop-color="#976EA9"/>
<stop offset="0.12" stop-color="#B395C0"/>
<stop offset="0.16" stop-color="#CBB6D3"/>
<stop offset="0.21" stop-color="#DED1E3"/>
<stop offset="0.26" stop-color="#EDE5F0"/>
<stop offset="0.31" stop-color="#F7F4F8"/>
<stop offset="0.38" stop-color="#FDFCFD"/>
<stop offset="0.48" stop-color="white"/>
</linearGradient>
<clipPath id="clip0_3367_13158">
<rect width="27.6667" height="16.6" fill="white" transform="translate(84.2354 1.70001)"/>
</clipPath>
</defs>
</svg>
