<svg width="185" height="178" viewBox="0 0 185 178" fill="none" xmlns="http://www.w3.org/2000/svg">
<path fill-rule="evenodd" clip-rule="evenodd" d="M103.89 64.2135C103.338 64.5894 102.686 64.7944 102.017 64.8028C101.568 64.8056 101.124 64.7203 100.708 64.552C100.293 64.3838 99.9148 64.1358 99.5957 63.8221C99.2766 63.5085 99.0228 63.1354 98.8487 62.7241C98.6746 62.3128 98.5836 61.8715 98.5809 61.4252C98.5812 60.7593 98.7794 60.1084 99.1506 59.5542C99.5218 59.0001 100.049 58.5676 100.667 58.311C101.285 58.0545 101.965 57.9852 102.622 58.1122C103.279 58.2392 103.883 58.5568 104.359 59.0249C104.835 59.4929 105.162 60.0905 105.297 60.7426C105.433 61.3947 105.372 62.0721 105.121 62.6896C104.871 63.3072 104.443 63.8375 103.89 64.2135ZM94.1514 64.2146C93.5987 64.5903 92.9466 64.7949 92.2772 64.8028C91.8289 64.8054 91.3845 64.7201 90.9692 64.5517C90.554 64.3834 90.1762 64.1355 89.8573 63.8218C89.5385 63.5082 89.2848 63.135 89.1109 62.7238C88.937 62.3126 88.8462 61.8713 88.8437 61.4252C88.844 60.7592 89.0422 60.1081 89.4135 59.5539C89.7848 58.9997 90.3126 58.5672 90.9303 58.3107C91.548 58.0542 92.2282 57.9853 92.8852 58.1125C93.5423 58.2397 94.1469 58.5572 94.6229 59.0254C95.0989 59.4937 95.425 60.0918 95.5604 60.7441C95.6957 61.3963 95.6342 62.0738 95.3835 62.6914C95.1327 63.3089 94.7041 63.8389 94.1514 64.2146ZM84.4123 64.2135C83.8599 64.5894 83.2081 64.7944 82.5388 64.8028C82.0903 64.8057 81.6456 64.7205 81.2301 64.5523C80.8146 64.3841 80.4364 64.1364 80.1173 63.8227C79.7982 63.509 79.5444 63.1357 79.3703 62.7244C79.1963 62.313 79.1055 61.8715 79.103 61.4252C79.1033 60.7593 79.3015 60.1084 79.6727 59.5542C80.0439 59.0001 80.5714 58.5676 81.189 58.311C81.8066 58.0545 82.4867 57.9852 83.1437 58.1122C83.8007 58.2392 84.4052 58.5568 84.8813 59.0249C85.3575 59.4929 85.6838 60.0905 85.8194 60.7426C85.955 61.3947 85.8937 62.0721 85.6433 62.6896C85.393 63.3072 84.9647 63.8375 84.4123 64.2135Z" fill="#00C05A"/>
<path fill-rule="evenodd" clip-rule="evenodd" d="M68.9188 81.2972C72.9861 83.099 77.6194 84 82.8186 84C85.0303 84 87.0984 83.8405 89.0228 83.5216C76.9333 81.8798 67.6739 72.6234 67.6739 61.4514C67.6739 49.1199 78.9537 39.1224 92.8698 39.1224C106.785 39.1224 118.073 49.1187 118.073 61.4514C118.071 64.1012 117.542 66.7247 116.517 69.1703C116.517 69.1773 116.517 69.1843 116.51 69.1843C109.346 85.2031 128.709 89.0808 128.709 74.8197V27.5583C128.709 22.718 127.772 18.5666 125.897 15.1041C124.023 11.6063 121.459 8.74448 118.205 6.51861C114.986 4.29274 111.29 2.64984 107.117 1.5899C102.979 0.529968 98.6459 0 94.1188 0C87.611 0 81.8813 0.989267 76.9297 2.96781C72.0135 4.91103 67.9992 7.7022 64.8868 11.3413C61.7744 14.9451 59.6341 20.9161 58.573 25.8625H79.5293C80.3074 23.1773 81.899 20.9514 84.304 19.1849C86.7091 17.383 89.9453 16.482 94.0127 16.482C97.8678 16.482 100.839 17.4006 102.926 19.2379C105.048 21.0751 106.109 23.6719 106.109 27.0284V27.3464C106.109 29.0776 105.454 30.3849 104.146 31.2681C102.837 32.1514 100.733 32.8227 97.8325 33.282C94.9322 33.706 91.1125 34.1653 86.3731 34.6599C82.3411 35.0486 78.4859 35.7199 74.8076 36.6738C71.1647 37.6278 67.9108 39.041 65.0459 40.9136C62.1811 42.7861 59.9175 45.2593 58.2552 48.3331C56.5929 51.4069 55.7617 55.205 55.7617 59.7274C55.7617 65.0978 56.9289 69.5849 59.2632 73.1886C61.6329 76.7571 64.8514 79.4599 68.9188 81.2972Z" fill="url(#paint0_linear_3367_13105)"/>
<path d="M23.3255 114.54V134H20.1335V120.672L14.1975 134H11.9855L6.02149 120.672V134H2.82949V114.54H6.27349L13.1055 129.8L19.9095 114.54H23.3255ZM29.1449 116.528C28.5662 116.528 28.0809 116.332 27.6889 115.94C27.2969 115.548 27.1009 115.063 27.1009 114.484C27.1009 113.905 27.2969 113.42 27.6889 113.028C28.0809 112.636 28.5662 112.44 29.1449 112.44C29.7049 112.44 30.1809 112.636 30.5729 113.028C30.9649 113.42 31.1609 113.905 31.1609 114.484C31.1609 115.063 30.9649 115.548 30.5729 115.94C30.1809 116.332 29.7049 116.528 29.1449 116.528ZM30.7129 118.572V134H27.5209V118.572H30.7129ZM42.6877 118.32C43.901 118.32 44.9837 118.572 45.9357 119.076C46.9064 119.58 47.6624 120.327 48.2037 121.316C48.745 122.305 49.0157 123.5 49.0157 124.9V134H45.8517V125.376C45.8517 123.995 45.5064 122.94 44.8157 122.212C44.125 121.465 43.1824 121.092 41.9877 121.092C40.793 121.092 39.841 121.465 39.1317 122.212C38.441 122.94 38.0957 123.995 38.0957 125.376V134H34.9037V118.572H38.0957V120.336C38.6184 119.701 39.281 119.207 40.0837 118.852C40.905 118.497 41.773 118.32 42.6877 118.32ZM59.3033 118.32C60.498 118.32 61.5526 118.563 62.4673 119.048C63.4006 119.515 64.1286 120.103 64.6513 120.812V118.572H67.8713V134.252C67.8713 135.671 67.5726 136.931 66.9753 138.032C66.378 139.152 65.51 140.029 64.3713 140.664C63.2513 141.299 61.9073 141.616 60.3393 141.616C58.2486 141.616 56.5126 141.121 55.1313 140.132C53.75 139.161 52.966 137.836 52.7793 136.156H55.9433C56.186 136.959 56.6993 137.603 57.4833 138.088C58.286 138.592 59.238 138.844 60.3393 138.844C61.6273 138.844 62.6633 138.452 63.4473 137.668C64.25 136.884 64.6513 135.745 64.6513 134.252V131.676C64.11 132.404 63.3726 133.02 62.4393 133.524C61.5246 134.009 60.4793 134.252 59.3033 134.252C57.9593 134.252 56.7273 133.916 55.6073 133.244C54.506 132.553 53.6286 131.601 52.9753 130.388C52.3406 129.156 52.0233 127.765 52.0233 126.216C52.0233 124.667 52.3406 123.295 52.9753 122.1C53.6286 120.905 54.506 119.981 55.6073 119.328C56.7273 118.656 57.9593 118.32 59.3033 118.32ZM64.6513 126.272C64.6513 125.208 64.4273 124.284 63.9793 123.5C63.55 122.716 62.9806 122.119 62.2713 121.708C61.562 121.297 60.7966 121.092 59.9753 121.092C59.154 121.092 58.3886 121.297 57.6793 121.708C56.97 122.1 56.3913 122.688 55.9433 123.472C55.514 124.237 55.2993 125.152 55.2993 126.216C55.2993 127.28 55.514 128.213 55.9433 129.016C56.3913 129.819 56.97 130.435 57.6793 130.864C58.4073 131.275 59.1726 131.48 59.9753 131.48C60.7966 131.48 61.562 131.275 62.2713 130.864C62.9806 130.453 63.55 129.856 63.9793 129.072C64.4273 128.269 64.6513 127.336 64.6513 126.272ZM70.9999 126.216C70.9999 124.667 71.3172 123.295 71.9519 122.1C72.6052 120.905 73.4825 119.981 74.5839 119.328C75.7039 118.656 76.9359 118.32 78.2799 118.32C79.4932 118.32 80.5479 118.563 81.4439 119.048C82.3585 119.515 83.0865 120.103 83.6279 120.812V118.572H86.8479V134H83.6279V131.704C83.0865 132.432 82.3492 133.039 81.4159 133.524C80.4825 134.009 79.4185 134.252 78.2239 134.252C76.8985 134.252 75.6852 133.916 74.5839 133.244C73.4825 132.553 72.6052 131.601 71.9519 130.388C71.3172 129.156 70.9999 127.765 70.9999 126.216ZM83.6279 126.272C83.6279 125.208 83.4039 124.284 82.9559 123.5C82.5265 122.716 81.9572 122.119 81.2479 121.708C80.5385 121.297 79.7732 121.092 78.9519 121.092C78.1305 121.092 77.3652 121.297 76.6559 121.708C75.9465 122.1 75.3679 122.688 74.9199 123.472C74.4905 124.237 74.2759 125.152 74.2759 126.216C74.2759 127.28 74.4905 128.213 74.9199 129.016C75.3679 129.819 75.9465 130.435 76.6559 130.864C77.3839 131.275 78.1492 131.48 78.9519 131.48C79.7732 131.48 80.5385 131.275 81.2479 130.864C81.9572 130.453 82.5265 129.856 82.9559 129.072C83.4039 128.269 83.6279 127.336 83.6279 126.272ZM94.2324 113.28V134H91.0404V113.28H94.2324ZM97.3592 126.216C97.3592 124.667 97.6766 123.295 98.3112 122.1C98.9646 120.905 99.8419 119.981 100.943 119.328C102.063 118.656 103.295 118.32 104.639 118.32C105.853 118.32 106.907 118.563 107.803 119.048C108.718 119.515 109.446 120.103 109.987 120.812V118.572H113.207V134H109.987V131.704C109.446 132.432 108.709 133.039 107.775 133.524C106.842 134.009 105.778 134.252 104.583 134.252C103.258 134.252 102.045 133.916 100.943 133.244C99.8419 132.553 98.9646 131.601 98.3112 130.388C97.6766 129.156 97.3592 127.765 97.3592 126.216ZM109.987 126.272C109.987 125.208 109.763 124.284 109.315 123.5C108.886 122.716 108.317 122.119 107.607 121.708C106.898 121.297 106.133 121.092 105.311 121.092C104.49 121.092 103.725 121.297 103.015 121.708C102.306 122.1 101.727 122.688 101.279 123.472C100.85 124.237 100.635 125.152 100.635 126.216C100.635 127.28 100.85 128.213 101.279 129.016C101.727 129.819 102.306 130.435 103.015 130.864C103.743 131.275 104.509 131.48 105.311 131.48C106.133 131.48 106.898 131.275 107.607 130.864C108.317 130.453 108.886 129.856 109.315 129.072C109.763 128.269 109.987 127.336 109.987 126.272ZM120.592 120.812C121.058 120.028 121.674 119.421 122.44 118.992C123.224 118.544 124.148 118.32 125.212 118.32V121.624H124.4C123.149 121.624 122.197 121.941 121.544 122.576C120.909 123.211 120.592 124.312 120.592 125.88V134H117.4V118.572H120.592V120.812ZM131.338 120.868C131.879 120.121 132.617 119.515 133.55 119.048C134.502 118.563 135.557 118.32 136.714 118.32C138.077 118.32 139.309 118.647 140.41 119.3C141.511 119.953 142.379 120.887 143.014 122.1C143.649 123.295 143.966 124.667 143.966 126.216C143.966 127.765 143.649 129.156 143.014 130.388C142.379 131.601 141.502 132.553 140.382 133.244C139.281 133.916 138.058 134.252 136.714 134.252C135.519 134.252 134.455 134.019 133.522 133.552C132.607 133.085 131.879 132.488 131.338 131.76V134H128.146V113.28H131.338V120.868ZM140.718 126.216C140.718 125.152 140.494 124.237 140.046 123.472C139.617 122.688 139.038 122.1 138.31 121.708C137.601 121.297 136.835 121.092 136.014 121.092C135.211 121.092 134.446 121.297 133.718 121.708C133.009 122.119 132.43 122.716 131.982 123.5C131.553 124.284 131.338 125.208 131.338 126.272C131.338 127.336 131.553 128.269 131.982 129.072C132.43 129.856 133.009 130.453 133.718 130.864C134.446 131.275 135.211 131.48 136.014 131.48C136.835 131.48 137.601 131.275 138.31 130.864C139.038 130.435 139.617 129.819 140.046 129.016C140.494 128.213 140.718 127.28 140.718 126.216ZM146.058 126.216C146.058 124.667 146.376 123.295 147.01 122.1C147.664 120.905 148.541 119.981 149.642 119.328C150.762 118.656 151.994 118.32 153.338 118.32C154.552 118.32 155.606 118.563 156.502 119.048C157.417 119.515 158.145 120.103 158.686 120.812V118.572H161.906V134H158.686V131.704C158.145 132.432 157.408 133.039 156.474 133.524C155.541 134.009 154.477 134.252 153.282 134.252C151.957 134.252 150.744 133.916 149.642 133.244C148.541 132.553 147.664 131.601 147.01 130.388C146.376 129.156 146.058 127.765 146.058 126.216ZM158.686 126.272C158.686 125.208 158.462 124.284 158.014 123.5C157.585 122.716 157.016 122.119 156.306 121.708C155.597 121.297 154.832 121.092 154.01 121.092C153.189 121.092 152.424 121.297 151.714 121.708C151.005 122.1 150.426 122.688 149.978 123.472C149.549 124.237 149.334 125.152 149.334 126.216C149.334 127.28 149.549 128.213 149.978 129.016C150.426 129.819 151.005 130.435 151.714 130.864C152.442 131.275 153.208 131.48 154.01 131.48C154.832 131.48 155.597 131.275 156.306 130.864C157.016 130.453 157.585 129.856 158.014 129.072C158.462 128.269 158.686 127.336 158.686 126.272ZM169.291 120.812C169.758 120.028 170.374 119.421 171.139 118.992C171.923 118.544 172.847 118.32 173.911 118.32V121.624H173.099C171.848 121.624 170.896 121.941 170.243 122.576C169.608 123.211 169.291 124.312 169.291 125.88V134H166.099V118.572H169.291V120.812ZM180.849 114.54L180.485 128.12H177.825L177.461 114.54H180.849ZM179.253 134.196C178.674 134.196 178.189 134 177.797 133.608C177.405 133.216 177.209 132.731 177.209 132.152C177.209 131.573 177.405 131.088 177.797 130.696C178.189 130.304 178.674 130.108 179.253 130.108C179.813 130.108 180.289 130.304 180.681 130.696C181.073 131.088 181.269 131.573 181.269 132.152C181.269 132.731 181.073 133.216 180.681 133.608C180.289 134 179.813 134.196 179.253 134.196Z" fill="white"/>
<path d="M25.8754 159.49L22.1674 172H19.8454L17.2174 162.532L14.4274 172L12.1234 172.018L8.57735 159.49H10.7554L13.3474 169.678L16.1554 159.49H18.4594L21.0694 169.624L23.6794 159.49H25.8754ZM36.6578 166.798C36.6578 167.17 36.6338 167.506 36.5858 167.806H29.0078C29.0678 168.598 29.3618 169.234 29.8898 169.714C30.4178 170.194 31.0658 170.434 31.8338 170.434C32.9378 170.434 33.7178 169.972 34.1738 169.048H36.3878C36.0878 169.96 35.5418 170.71 34.7498 171.298C33.9698 171.874 32.9978 172.162 31.8338 172.162C30.8858 172.162 30.0338 171.952 29.2778 171.532C28.5338 171.1 27.9458 170.5 27.5138 169.732C27.0938 168.952 26.8838 168.052 26.8838 167.032C26.8838 166.012 27.0878 165.118 27.4958 164.35C27.9158 163.57 28.4978 162.97 29.2418 162.55C29.9978 162.13 30.8618 161.92 31.8338 161.92C32.7698 161.92 33.6038 162.124 34.3358 162.532C35.0678 162.94 35.6378 163.516 36.0458 164.26C36.4538 164.992 36.6578 165.838 36.6578 166.798ZM34.5158 166.15C34.5038 165.394 34.2338 164.788 33.7058 164.332C33.1778 163.876 32.5238 163.648 31.7438 163.648C31.0358 163.648 30.4298 163.876 29.9258 164.332C29.4218 164.776 29.1218 165.382 29.0258 166.15H34.5158ZM40.7291 158.68V172H38.6771V158.68H40.7291ZM42.7392 167.032C42.7392 166.012 42.9432 165.118 43.3512 164.35C43.7712 163.57 44.3472 162.97 45.0792 162.55C45.8112 162.13 46.6512 161.92 47.5992 161.92C48.7992 161.92 49.7892 162.208 50.5692 162.784C51.3612 163.348 51.8952 164.158 52.1712 165.214H49.9572C49.7772 164.722 49.4892 164.338 49.0932 164.062C48.6972 163.786 48.1992 163.648 47.5992 163.648C46.7592 163.648 46.0872 163.948 45.5832 164.548C45.0912 165.136 44.8452 165.964 44.8452 167.032C44.8452 168.1 45.0912 168.934 45.5832 169.534C46.0872 170.134 46.7592 170.434 47.5992 170.434C48.7872 170.434 49.5732 169.912 49.9572 168.868H52.1712C51.8832 169.876 51.3432 170.68 50.5512 171.28C49.7592 171.868 48.7752 172.162 47.5992 172.162C46.6512 172.162 45.8112 171.952 45.0792 171.532C44.3472 171.1 43.7712 170.5 43.3512 169.732C42.9432 168.952 42.7392 168.052 42.7392 167.032ZM58.5182 172.162C57.5822 172.162 56.7362 171.952 55.9802 171.532C55.2242 171.1 54.6302 170.5 54.1982 169.732C53.7662 168.952 53.5502 168.052 53.5502 167.032C53.5502 166.024 53.7722 165.13 54.2162 164.35C54.6602 163.57 55.2662 162.97 56.0342 162.55C56.8022 162.13 57.6602 161.92 58.6082 161.92C59.5562 161.92 60.4142 162.13 61.1822 162.55C61.9502 162.97 62.5562 163.57 63.0002 164.35C63.4442 165.13 63.6662 166.024 63.6662 167.032C63.6662 168.04 63.4382 168.934 62.9822 169.714C62.5262 170.494 61.9022 171.1 61.1102 171.532C60.3302 171.952 59.4662 172.162 58.5182 172.162ZM58.5182 170.38C59.0462 170.38 59.5382 170.254 59.9942 170.002C60.4622 169.75 60.8402 169.372 61.1282 168.868C61.4162 168.364 61.5602 167.752 61.5602 167.032C61.5602 166.312 61.4222 165.706 61.1462 165.214C60.8702 164.71 60.5042 164.332 60.0482 164.08C59.5922 163.828 59.1002 163.702 58.5722 163.702C58.0442 163.702 57.5522 163.828 57.0962 164.08C56.6522 164.332 56.2982 164.71 56.0342 165.214C55.7702 165.706 55.6382 166.312 55.6382 167.032C55.6382 168.1 55.9082 168.928 56.4482 169.516C57.0002 170.092 57.6902 170.38 58.5182 170.38ZM77.7007 161.92C78.4807 161.92 79.1767 162.082 79.7887 162.406C80.4127 162.73 80.8987 163.21 81.2467 163.846C81.6067 164.482 81.7867 165.25 81.7867 166.15V172H79.7527V166.456C79.7527 165.568 79.5307 164.89 79.0867 164.422C78.6427 163.942 78.0367 163.702 77.2687 163.702C76.5007 163.702 75.8887 163.942 75.4327 164.422C74.9887 164.89 74.7667 165.568 74.7667 166.456V172H72.7327V166.456C72.7327 165.568 72.5107 164.89 72.0667 164.422C71.6227 163.942 71.0167 163.702 70.2487 163.702C69.4807 163.702 68.8687 163.942 68.4127 164.422C67.9687 164.89 67.7467 165.568 67.7467 166.456V172H65.6947V162.082H67.7467V163.216C68.0827 162.808 68.5087 162.49 69.0247 162.262C69.5407 162.034 70.0927 161.92 70.6807 161.92C71.4727 161.92 72.1807 162.088 72.8047 162.424C73.4287 162.76 73.9087 163.246 74.2447 163.882C74.5447 163.282 75.0127 162.808 75.6487 162.46C76.2847 162.1 76.9687 161.92 77.7007 161.92ZM93.4879 166.798C93.4879 167.17 93.4639 167.506 93.4159 167.806H85.8379C85.8979 168.598 86.1919 169.234 86.7199 169.714C87.2479 170.194 87.8959 170.434 88.6639 170.434C89.7679 170.434 90.5479 169.972 91.0039 169.048H93.2179C92.9179 169.96 92.3719 170.71 91.5799 171.298C90.7999 171.874 89.8279 172.162 88.6639 172.162C87.7159 172.162 86.8639 171.952 86.1079 171.532C85.3639 171.1 84.7759 170.5 84.3439 169.732C83.9239 168.952 83.7139 168.052 83.7139 167.032C83.7139 166.012 83.9179 165.118 84.3259 164.35C84.7459 163.57 85.3279 162.97 86.0719 162.55C86.8279 162.13 87.6919 161.92 88.6639 161.92C89.5999 161.92 90.4339 162.124 91.1659 162.532C91.8979 162.94 92.4679 163.516 92.8759 164.26C93.2839 164.992 93.4879 165.838 93.4879 166.798ZM91.3459 166.15C91.3339 165.394 91.0639 164.788 90.5359 164.332C90.0079 163.876 89.3539 163.648 88.5739 163.648C87.8659 163.648 87.2599 163.876 86.7559 164.332C86.2519 164.776 85.9519 165.382 85.8559 166.15H91.3459ZM102.577 163.756V169.246C102.577 169.618 102.661 169.888 102.829 170.056C103.009 170.212 103.309 170.29 103.729 170.29H104.989V172H103.369C102.445 172 101.737 171.784 101.245 171.352C100.753 170.92 100.507 170.218 100.507 169.246V163.756H99.337V162.082H100.507V159.616H102.577V162.082H104.989V163.756H102.577ZM111.182 172.162C110.246 172.162 109.4 171.952 108.644 171.532C107.888 171.1 107.294 170.5 106.862 169.732C106.43 168.952 106.214 168.052 106.214 167.032C106.214 166.024 106.436 165.13 106.88 164.35C107.324 163.57 107.93 162.97 108.698 162.55C109.466 162.13 110.324 161.92 111.272 161.92C112.22 161.92 113.078 162.13 113.846 162.55C114.614 162.97 115.22 163.57 115.664 164.35C116.108 165.13 116.33 166.024 116.33 167.032C116.33 168.04 116.102 168.934 115.646 169.714C115.19 170.494 114.566 171.1 113.774 171.532C112.994 171.952 112.13 172.162 111.182 172.162ZM111.182 170.38C111.71 170.38 112.202 170.254 112.658 170.002C113.126 169.75 113.504 169.372 113.792 168.868C114.08 168.364 114.224 167.752 114.224 167.032C114.224 166.312 114.086 165.706 113.81 165.214C113.534 164.71 113.168 164.332 112.712 164.08C112.256 163.828 111.764 163.702 111.236 163.702C110.708 163.702 110.216 163.828 109.76 164.08C109.316 164.332 108.962 164.71 108.698 165.214C108.434 165.706 108.302 166.312 108.302 167.032C108.302 168.1 108.572 168.928 109.112 169.516C109.664 170.092 110.354 170.38 111.182 170.38ZM130.577 169.444H125.339L124.439 172H122.297L126.779 159.472H129.155L133.637 172H131.477L130.577 169.444ZM130.001 167.77L127.967 161.956L125.915 167.77H130.001ZM148.343 159.49V161.164H145.013V172H142.961V161.164H139.613V159.49H148.343ZM149.737 166.996C149.737 166 149.941 165.118 150.349 164.35C150.769 163.582 151.333 162.988 152.041 162.568C152.761 162.136 153.553 161.92 154.417 161.92C155.197 161.92 155.875 162.076 156.451 162.388C157.039 162.688 157.507 163.066 157.855 163.522V162.082H159.925V172H157.855V170.524C157.507 170.992 157.033 171.382 156.433 171.694C155.833 172.006 155.149 172.162 154.381 172.162C153.529 172.162 152.749 171.946 152.041 171.514C151.333 171.07 150.769 170.458 150.349 169.678C149.941 168.886 149.737 167.992 149.737 166.996ZM157.855 167.032C157.855 166.348 157.711 165.754 157.423 165.25C157.147 164.746 156.781 164.362 156.325 164.098C155.869 163.834 155.377 163.702 154.849 163.702C154.321 163.702 153.829 163.834 153.373 164.098C152.917 164.35 152.545 164.728 152.257 165.232C151.981 165.724 151.843 166.312 151.843 166.996C151.843 167.68 151.981 168.28 152.257 168.796C152.545 169.312 152.917 169.708 153.373 169.984C153.841 170.248 154.333 170.38 154.849 170.38C155.377 170.38 155.869 170.248 156.325 169.984C156.781 169.72 157.147 169.336 157.423 168.832C157.711 168.316 157.855 167.716 157.855 167.032ZM164.673 158.68V172H162.621V158.68H164.673ZM171.291 167.05L175.863 172H173.091L169.419 167.734V172H167.367V158.68H169.419V166.42L173.019 162.082H175.863L171.291 167.05Z" fill="white"/>
<defs>
<linearGradient id="paint0_linear_3367_13105" x1="120.478" y1="8.53494" x2="54.6512" y2="67.1773" gradientUnits="userSpaceOnUse">
<stop stop-color="#A970FF"/>
<stop offset="1" stop-color="#823AED"/>
</linearGradient>
</defs>
</svg>
