<svg width="277" height="260" viewBox="0 0 277 260" fill="none" xmlns="http://www.w3.org/2000/svg">
<g opacity="0.9">
<path d="M313.008 158.34L313.01 158.34C314.11 158.337 315.195 158.607 316.168 159.125C317.141 159.644 317.974 160.395 318.592 161.314C319.21 162.233 319.595 163.292 319.713 164.396C319.83 165.498 319.677 166.611 319.269 167.639L307.906 193.967C307.906 193.967 307.906 193.968 307.906 193.968C306.292 197.657 303.637 200.786 300.273 202.965C296.907 205.144 292.981 206.277 288.981 206.224V206.224H288.972H242.661H242.201L242.018 206.647L224.569 247.041C224.568 247.041 224.568 247.041 224.568 247.042C222.956 250.732 220.302 253.862 216.937 256.041C213.571 258.22 209.644 259.353 205.644 259.298V259.298H205.635L170.624 259.298C170.624 259.298 170.623 259.298 170.622 259.298C169.528 259.293 168.451 259.02 167.484 258.502C166.517 257.983 165.689 257.234 165.074 256.319C164.458 255.405 164.073 254.352 163.952 253.253C163.832 252.158 163.977 251.05 164.376 250.024L198.684 170.597C198.684 170.597 198.684 170.596 198.684 170.596C200.298 166.907 202.952 163.778 206.317 161.599C209.682 159.42 213.609 158.287 217.609 158.34V158.34H217.618L313.008 158.34Z" stroke="url(#paint0_linear_3367_13136)" stroke-width="1.40092"/>
<path d="M214.354 198.744H214.346H125.433C124.421 198.732 123.427 198.475 122.535 197.994L122.208 198.601L122.535 197.994C121.642 197.512 120.877 196.82 120.305 195.975L119.725 196.368L120.305 195.975C119.734 195.131 119.373 194.159 119.255 193.143C119.137 192.133 119.262 191.109 119.619 190.158L126.533 174.286L126.534 174.284L130.281 165.622L130.281 165.622C131.764 162.191 134.218 159.277 137.336 157.246C140.453 155.214 144.096 154.154 147.808 154.198V154.198H147.816H190.995H191.455L191.638 153.776L207.927 116.126L207.928 116.126C209.41 112.695 211.865 109.781 214.982 107.75C218.1 105.718 221.742 104.658 225.454 104.702L225.454 104.702H225.462H258.106C259.114 104.72 260.103 104.981 260.989 105.465C261.878 105.949 262.638 106.642 263.205 107.486C263.772 108.33 264.129 109.299 264.246 110.312C264.362 111.32 264.237 112.341 263.88 113.289L231.88 187.321C230.397 190.751 227.943 193.665 224.826 195.696C221.708 197.728 218.066 198.788 214.354 198.744Z" stroke="url(#paint1_linear_3367_13136)" stroke-width="1.40092"/>
<path d="M217.623 158.344V158.344L217.633 158.344L244.322 158.304L231.811 187.283C231.811 187.283 231.811 187.283 231.811 187.283C230.328 190.714 227.874 193.627 224.756 195.659C221.639 197.69 217.996 198.75 214.284 198.707V198.706H214.276H186.538L198.698 170.601C198.698 170.601 198.698 170.6 198.698 170.6C200.312 166.911 202.967 163.782 206.332 161.603C209.697 159.424 213.623 158.291 217.623 158.344Z" stroke="url(#paint2_linear_3367_13136)" stroke-width="1.40092"/>
<path d="M159.143 104.618V104.618L159.152 104.618L181.35 104.584L170.944 128.687C169.711 131.541 167.669 133.964 165.076 135.653C162.484 137.343 159.454 138.225 156.367 138.188L156.367 138.188H156.36H133.29L143.403 114.813C143.404 114.812 143.404 114.812 143.404 114.811C144.746 111.743 146.954 109.141 149.752 107.329C152.551 105.516 155.817 104.574 159.143 104.618Z" stroke="#049B24" stroke-width="1.16517"/>
<path opacity="0.3" d="M146.511 0.519671L146.511 0.519718L146.518 0.519708L159.782 0.501104L153.569 13.7618C153.569 13.7618 153.568 13.7619 153.568 13.762C152.834 15.327 151.616 16.6623 150.06 17.5963C148.505 18.5304 146.683 19.0197 144.824 18.9994V18.9994H144.819H131.023L137.059 6.14699C137.059 6.1467 137.059 6.14641 137.059 6.14613C137.859 4.46043 139.179 3.0245 140.86 2.02173C142.541 1.01862 144.507 0.495067 146.511 0.519671Z" stroke="#00E751"/>
<path opacity="0.3" d="M135.678 78.5193L135.678 78.5194L135.685 78.5193L148.949 78.5007L142.736 91.7614C142.736 91.7615 142.735 91.7616 142.735 91.7616C142.001 93.3267 140.783 94.662 139.227 95.5959C137.672 96.53 135.85 97.0193 133.991 96.9991V96.9991H133.986H120.19L126.226 84.1466C126.226 84.1463 126.226 84.146 126.226 84.1458C127.026 82.4601 128.346 81.0241 130.027 80.0214C131.708 79.0183 133.674 78.4947 135.678 78.5193Z" stroke="#00E751"/>
<path opacity="0.5" d="M36.329 74.193L36.329 74.193L36.3361 74.193L53.6269 74.1679L45.5275 92.0928C45.5275 92.0929 45.5274 92.093 45.5274 92.0931C44.5684 94.2128 42.9797 96.0163 40.9572 97.2755C38.9345 98.5349 36.5689 99.1932 34.1567 99.166V99.166H34.151H16.1771L24.0479 81.785C24.048 81.7847 24.0481 81.7844 24.0483 81.7841C25.0921 79.5037 26.8114 77.5661 28.995 76.2151C31.179 74.8638 33.7297 74.1599 36.329 74.193Z" stroke="#00E751"/>
<path opacity="0.5" d="M18.8364 160.858V160.858L18.8437 160.858L34.1366 160.835L26.9607 177.212C26.111 179.149 24.7042 180.795 22.916 181.943C21.1277 183.091 19.0375 183.691 16.9071 183.666V183.666H16.9013H1.00099L7.9736 167.787C7.97373 167.787 7.97386 167.787 7.97399 167.786C8.89914 165.702 10.4219 163.934 12.3532 162.701C14.2849 161.469 16.5396 160.827 18.8364 160.858Z" stroke="#00E751"/>
<g opacity="0.8">
<path d="M254.396 40.2087L254.397 40.2087C254.94 40.2074 255.475 40.3404 255.955 40.5962C256.436 40.8521 256.847 41.223 257.152 41.6766C257.457 42.1302 257.647 42.6525 257.705 43.1977C257.763 43.7413 257.687 44.2908 257.486 44.7982L251.878 57.7922C251.878 57.7925 251.877 57.7927 251.877 57.793C251.081 59.6137 249.771 61.1577 248.11 62.2331C246.449 63.3087 244.511 63.868 242.537 63.8417V63.8417H242.533H219.676H219.449L219.359 64.0503L210.747 83.9868C210.746 83.9871 210.746 83.9874 210.746 83.9877C209.951 85.8088 208.641 87.3533 206.98 88.4288C205.319 89.5044 203.38 90.0633 201.407 90.0362L201.407 90.0361H201.402L184.122 90.0361C184.122 90.0361 184.122 90.0361 184.122 90.0361C183.581 90.0339 183.05 89.8991 182.573 89.6432C182.095 89.3872 181.687 89.0175 181.383 88.5661C181.079 88.1147 180.889 87.5953 180.829 87.0528C180.77 86.5123 180.842 85.9654 181.039 85.4593L197.971 46.2581C197.971 46.2579 197.971 46.2577 197.971 46.2575C198.768 44.4368 200.078 42.8927 201.739 41.8172C203.4 40.7417 205.338 40.1824 207.311 40.2087L207.311 40.2087H207.316L254.396 40.2087Z" stroke="#00A84F" stroke-width="0.691421"/>
<path d="M205.705 60.1506H205.701H161.819C161.319 60.145 160.829 60.0182 160.388 59.7806C159.947 59.5428 159.57 59.201 159.288 58.7842L159.001 58.9779L159.288 58.7842C159.006 58.3673 158.828 57.8878 158.769 57.3864C158.711 56.8878 158.773 56.3824 158.949 55.913L162.361 48.0793L162.362 48.0785L164.211 43.8032L164.211 43.8031C164.943 42.1098 166.155 40.672 167.693 39.6693C169.232 38.6666 171.03 38.1435 172.862 38.1651V38.1651H172.866H194.176H194.404L194.494 37.9567L202.534 19.3745L202.534 19.3744C203.266 17.6811 204.477 16.2433 206.015 15.2406C207.554 14.2379 209.352 13.7148 211.184 13.7364L211.184 13.7365H211.188H227.299C227.796 13.7451 228.285 13.8742 228.722 14.1128C229.161 14.3519 229.536 14.694 229.816 15.1104C230.096 15.5269 230.272 16.0053 230.33 16.5052C230.387 17.0025 230.325 17.5063 230.149 17.9744L214.356 54.5126C213.624 56.2059 212.412 57.6437 210.874 58.6464C209.335 59.6491 207.537 60.1722 205.705 60.1506Z" stroke="#00E751" stroke-width="0.691421"/>
<path d="M207.319 40.2113V40.2114L207.324 40.2114L220.497 40.1913L214.322 54.4941C213.59 56.1874 212.379 57.6252 210.84 58.6279C209.301 59.6306 207.504 60.1537 205.672 60.1321V60.1321H205.668H191.977L197.979 46.2608C197.979 46.2606 197.979 46.2604 197.979 46.2602C198.776 44.4394 200.086 42.8953 201.747 41.8199C203.407 40.7443 205.345 40.185 207.319 40.2113Z" stroke="#049B24" stroke-width="0.691421"/>
</g>
<g opacity="0.8">
<path d="M116.128 123.57L116.129 123.57C116.613 123.569 117.09 123.687 117.518 123.915C117.946 124.143 118.313 124.474 118.585 124.878C118.857 125.282 119.026 125.748 119.078 126.234C119.129 126.718 119.062 127.208 118.882 127.661C118.882 127.662 118.881 127.663 118.881 127.664L113.884 139.242C113.884 139.242 113.884 139.242 113.884 139.242C113.174 140.865 112.006 142.242 110.526 143.2C109.045 144.159 107.318 144.657 105.559 144.634V144.634H105.555H85.1824H84.9799L84.8995 144.82L77.2235 162.589C77.2234 162.59 77.2233 162.59 77.2233 162.59C76.5142 164.213 75.3465 165.59 73.8662 166.548C72.3857 167.507 70.658 168.005 68.8986 167.981H68.8944H53.4933C53.0115 167.979 52.5374 167.859 52.1119 167.631C51.6864 167.403 51.3224 167.073 51.0516 166.671C50.7807 166.269 50.6113 165.806 50.5581 165.322C50.5051 164.84 50.5692 164.353 50.7447 163.902L65.8367 128.962C65.8368 128.961 65.8369 128.961 65.837 128.961C66.5467 127.338 67.7145 125.962 69.1947 125.003C70.6751 124.045 72.4025 123.546 74.1618 123.57V123.57H74.1659L116.128 123.57Z" stroke="#00A84F" stroke-width="0.616267"/>
<path d="M72.7303 141.344H72.7267H33.614C33.169 141.339 32.7316 141.226 32.339 141.014C31.946 140.802 31.6094 140.498 31.358 140.126C31.1067 139.755 30.9481 139.327 30.8959 138.88C30.8441 138.436 30.899 137.986 31.056 137.567L34.0977 130.585L34.098 130.584L35.7465 126.774L35.7465 126.774C36.3989 125.264 37.4785 123.983 38.8499 123.089C40.2212 122.195 41.8236 121.729 43.4564 121.748V121.748H43.46H62.4544H62.6569L62.7372 121.563L69.9032 105L69.9033 105C70.5556 103.491 71.6352 102.209 73.0066 101.316C74.378 100.422 75.9803 99.9558 77.6131 99.975V99.975H77.6168H91.9769C92.4201 99.9828 92.8551 100.098 93.2453 100.31C93.6361 100.524 93.9705 100.828 94.22 101.2C94.4694 101.571 94.6265 101.997 94.6778 102.443L94.984 102.408L94.6779 102.443C94.7289 102.886 94.6737 103.335 94.517 103.752L80.4402 136.319C79.7878 137.828 78.7082 139.11 77.3368 140.003C75.9655 140.897 74.3631 141.363 72.7303 141.344Z" stroke="#00E751" stroke-width="0.616267"/>
<path d="M74.1692 123.573L74.1692 123.573L74.1738 123.573L85.9142 123.555L80.4106 136.303C80.4106 136.303 80.4105 136.303 80.4105 136.303C79.7582 137.813 78.6786 139.094 77.3072 139.988C75.9358 140.882 74.3335 141.348 72.7007 141.329V141.328H72.6971H60.4949L65.8442 128.965C65.8442 128.965 65.8443 128.965 65.8444 128.964C66.5541 127.342 67.722 125.965 69.2022 125.007C70.6825 124.048 72.4099 123.55 74.1692 123.573Z" stroke="#049B24" stroke-width="0.616267"/>
</g>
<g opacity="0.7">
<path d="M130.659 49.8066L130.659 49.8066C130.895 49.806 131.128 49.8639 131.337 49.9752C131.546 50.0866 131.725 50.2481 131.858 50.4458C131.991 50.6434 132.074 50.8712 132.1 51.1089C132.125 51.3453 132.092 51.5842 132.005 51.8049L129.323 58.0186C129.323 58.0189 129.323 58.0193 129.323 58.0196C128.953 58.8648 128.344 59.5814 127.574 60.0804C126.803 60.5797 125.903 60.8393 124.987 60.8271V60.827H124.983H114.049H113.846L113.766 61.013L109.646 70.55C109.646 70.5501 109.646 70.5502 109.646 70.5503C109.276 71.396 108.668 72.1131 107.897 72.6123C107.126 73.1116 106.227 73.371 105.311 73.3583V73.3583H105.306L97.0406 73.3583C97.0404 73.3583 97.0403 73.3583 97.0401 73.3583C96.8051 73.3574 96.5737 73.2987 96.3661 73.1873C96.1583 73.0758 95.9803 72.9149 95.8479 72.7181C95.7154 72.5214 95.6325 72.2949 95.6065 72.0583C95.5807 71.8233 95.6117 71.5857 95.6969 71.3657L103.796 52.6151C103.796 52.6149 103.796 52.6147 103.796 52.6145C104.166 51.7691 104.774 51.0524 105.545 50.5532C106.316 50.054 107.216 49.7944 108.132 49.8066V49.8066H108.136L130.659 49.8066Z" stroke="#00A84F" stroke-width="0.616267"/>
<path d="M107.367 59.0607V59.0607H107.363H86.3705C86.1551 59.0582 85.9434 59.0034 85.7532 58.9009C85.5626 58.7981 85.3992 58.6502 85.2772 58.4698C85.1551 58.2894 85.0781 58.0817 85.0527 57.8646C85.0276 57.6498 85.0539 57.4321 85.1292 57.2298L86.7603 53.4857L86.7606 53.485L87.6454 51.4396L87.6454 51.4396C87.9845 50.6551 88.5455 49.9892 89.258 49.5249C89.9705 49.0606 90.8028 48.8185 91.6509 48.8285V48.8285H91.6545H101.849H102.052L102.132 48.6427L105.979 39.7531L105.979 39.753C106.318 38.9686 106.879 38.3027 107.591 37.8384C108.304 37.3741 109.136 37.1319 109.984 37.1419L109.984 37.1419H109.988H117.694C117.908 37.1459 118.119 37.2016 118.308 37.3046C118.497 37.4079 118.66 37.5559 118.781 37.7361C118.902 37.9164 118.978 38.1235 119.003 38.3401C119.028 38.5544 119.001 38.7715 118.926 38.9733L111.372 56.4497C111.033 57.2341 110.472 57.9 109.759 58.3643C109.047 58.8286 108.215 59.0708 107.367 59.0607Z" stroke="#00E751" stroke-width="0.616267"/>
<path d="M108.135 49.8089L108.135 49.809L108.139 49.809L114.223 49.7997L111.356 56.4424C111.017 57.2268 110.455 57.8927 109.743 58.357C109.031 58.8213 108.198 59.0635 107.35 59.0535L107.35 59.0534H107.346H101.014L103.799 52.6174C103.799 52.6172 103.799 52.617 103.799 52.6169C104.169 51.7715 104.777 51.0547 105.548 50.5555C106.319 50.0563 107.219 49.7967 108.135 49.8089Z" stroke="#049B24" stroke-width="0.616267"/>
</g>
</g>
<defs>
<linearGradient id="paint0_linear_3367_13136" x1="201.736" y1="152.75" x2="248.319" y2="212.333" gradientUnits="userSpaceOnUse">
<stop stop-color="#00A84F" stop-opacity="0.42"/>
<stop offset="1" stop-color="#00A84F"/>
</linearGradient>
<linearGradient id="paint1_linear_3367_13136" x1="157.319" y1="110.5" x2="229.902" y2="212.334" gradientUnits="userSpaceOnUse">
<stop stop-color="#00E751"/>
<stop offset="1" stop-color="#00E751" stop-opacity="0.31"/>
</linearGradient>
<linearGradient id="paint2_linear_3367_13136" x1="209.319" y1="162.5" x2="228.819" y2="218.834" gradientUnits="userSpaceOnUse">
<stop stop-color="#049B24"/>
<stop offset="1" stop-color="#049B24" stop-opacity="0"/>
<stop offset="1" stop-color="#049B24" stop-opacity="0.49"/>
</linearGradient>
</defs>
</svg>
