<svg width="18" height="18" viewBox="0 0 18 18" fill="none" xmlns="http://www.w3.org/2000/svg">
<g id="reply-3 2" clip-path="url(#clip0_393_10823)">
<g id="Reply">
<g id="Forward">
<path id="Path 212" d="M14.4313 9.12892C14.5257 9.05333 14.6021 8.95763 14.655 8.84882C14.7078 8.74001 14.7358 8.62078 14.7368 8.49982C14.7365 8.37873 14.7088 8.25933 14.6559 8.15041C14.603 8.0415 14.5262 7.94594 14.4313 7.87081L14.3229 7.78164L9.98727 4.38886L9.67519 4.14091C9.57375 4.06326 9.45261 4.01557 9.32546 4.00321C9.19831 3.99085 9.07023 4.01435 8.95574 4.07101C8.84106 4.12629 8.74436 4.21284 8.67683 4.32076C8.6093 4.42868 8.5737 4.55354 8.57413 4.68085V6.33899C4.59642 6.45351 1.52877 8.81689 0.0395355 12.267C-0.00167583 12.3631 -0.0109569 12.4698 0.0130481 12.5715C0.0370532 12.6733 0.093085 12.7647 0.172896 12.8323C0.252707 12.8998 0.352089 12.9399 0.456418 12.9467C0.560747 12.9535 0.6645 12.9267 0.752447 12.8702C3.08178 11.367 5.80205 10.5827 8.57413 10.6149V12.3176C8.57446 12.4451 8.61058 12.57 8.67841 12.678C8.74623 12.7859 8.84301 12.8727 8.95774 12.9283C9.07246 12.984 9.20051 13.0062 9.32728 12.9926C9.45406 12.979 9.57447 12.9301 9.67479 12.8514L9.98687 12.6097L14.3225 9.21031L14.4313 9.12892Z" fill="#4E445B"/>
<path id="Path 213" d="M17.6998 7.87121L17.5918 7.78164L13.338 4.39006L13.0317 4.14221C12.9326 4.0643 12.8133 4.01615 12.6879 4.00341C12.5625 3.99066 12.436 4.01383 12.3232 4.07021C12.2103 4.12727 12.1156 4.21461 12.0495 4.32245C11.9834 4.4303 11.9486 4.55436 11.949 4.68084C11.9488 4.77381 11.9695 4.86562 12.0096 4.94946C12.0498 5.03331 12.1083 5.10706 12.1809 5.16516L15.4637 7.78284L15.5713 7.87241C15.6651 7.94801 15.7407 8.04363 15.7927 8.15231C15.8447 8.26099 15.8717 8.38003 15.8717 8.50052C15.8717 8.621 15.8447 8.73994 15.7927 8.84862C15.7407 8.9573 15.6651 9.05293 15.5713 9.12852L15.4637 9.21031L12.1785 11.8367C12.1066 11.8943 12.0487 11.9674 12.0089 12.0506C11.9692 12.1337 11.9487 12.2247 11.949 12.3168C11.9483 12.4433 11.983 12.5676 12.0491 12.6755C12.1152 12.7834 12.2102 12.8707 12.3232 12.9275C12.4359 12.9848 12.5628 13.0082 12.6885 12.9949C12.8143 12.9816 12.9334 12.9322 13.0317 12.8526L13.338 12.6101L17.5918 9.20991L17.6998 9.12812C17.7935 9.05248 17.8692 8.9568 17.9211 8.84812C17.9731 8.73944 18 8.62047 18 8.50002C18 8.37956 17.9731 8.26069 17.9211 8.15201C17.8692 8.04333 17.7935 7.94765 17.6998 7.87201V7.87121Z" fill="#4E445B"/>
</g>
</g>
</g>
<defs>
<clipPath id="clip0_393_10823">
<rect width="18" height="18" fill="white"/>
</clipPath>
</defs>
</svg>
