<svg width="20" height="20" viewBox="0 0 20 20" fill="none" xmlns="http://www.w3.org/2000/svg">
<g id="Hide">
<g id="vuesax/bold/eye-slash">
<path id="Vector" d="M19.2019 8.28747C18.9401 7.8722 18.6603 7.484 18.3714 7.12289C18.0373 6.69859 17.4054 6.66247 17.0262 7.04164L14.3179 9.74997C14.5165 10.3458 14.5526 11.0319 14.3721 11.7451C14.0561 13.018 13.0269 14.0472 11.754 14.3632C11.0408 14.5437 10.3547 14.5076 9.75887 14.309C9.75887 14.309 8.46789 15.6 7.53803 16.5298C7.08664 16.9812 7.23109 17.7757 7.83595 18.0104C8.80192 18.3805 9.804 18.5701 10.8332 18.5701C12.4401 18.5701 14.0019 18.1007 15.4283 17.225C16.8818 16.3222 18.1908 14.9951 19.2471 13.3069C20.1047 11.9437 20.0596 9.65067 19.2019 8.28747Z" fill="#4E445B"/>
<path id="Vector_2" d="M12.6568 9.00974L9.00955 12.657C8.54914 12.1875 8.25122 11.5375 8.25122 10.8333C8.25122 9.41599 9.40678 8.2514 10.8332 8.2514C11.5373 8.2514 12.1873 8.54932 12.6568 9.00974Z" fill="#4E445B"/>
<path id="Vector_3" d="M16.4756 5.191L13.4151 8.25142C12.7561 7.58336 11.8443 7.18614 10.8332 7.18614C8.81098 7.18614 7.18598 8.82017 7.18598 10.8334C7.18598 11.8445 7.59223 12.7563 8.25125 13.4153L5.19986 16.4757H5.19084C4.18875 15.6632 3.26792 14.625 2.4825 13.3973C1.57973 11.9799 1.57973 9.67781 2.4825 8.26045C3.52973 6.61739 4.81167 5.32642 6.23806 4.4417C7.66445 3.57503 9.22625 3.09656 10.8332 3.09656C12.8464 3.09656 14.7964 3.83684 16.4756 5.191Z" fill="#4E445B"/>
<path id="Vector_4" d="M13.4153 10.8333C13.4153 12.2507 12.2598 13.4153 10.8334 13.4153C10.7792 13.4153 10.7341 13.4153 10.6799 13.3972L13.3973 10.6799C13.4153 10.734 13.4153 10.7792 13.4153 10.8333Z" fill="#4E445B"/>
<path id="Vector_5" d="M19.6532 2.01318C19.3824 1.74235 18.94 1.74235 18.6692 2.01318L2.01294 18.6785C1.74211 18.9493 1.74211 19.3917 2.01294 19.6625C2.14836 19.7889 2.31988 19.8611 2.50044 19.8611C2.68099 19.8611 2.85252 19.7889 2.98794 19.6535L19.6532 2.98818C19.9331 2.71735 19.9331 2.28402 19.6532 2.01318Z" fill="#4E445B"/>
</g>
</g>
</svg>
