<svg width="20" height="20" viewBox="0 0 20 20" fill="none" xmlns="http://www.w3.org/2000/svg">
<g id="Mute">
<g id="Notificatio- silent">
<path id="Combo shape" fill-rule="evenodd" clip-rule="evenodd" d="M15.5723 10.7627L15.1996 7.47934C14.9987 5.70888 13.6769 4.25601 11.8916 3.64474V3.55831C11.8916 2.51359 11.0447 1.66669 9.99999 1.66669C8.95528 1.66669 8.10837 2.51359 8.10837 3.55831V3.64474C7.84302 3.73559 7.5879 3.84504 7.34519 3.97135L16.6647 13.2909C16.6487 12.9841 16.5316 12.6732 16.2935 12.3935C15.8888 11.918 15.6394 11.3541 15.5723 10.7627ZM5.18567 15H14.1566L17.0986 17.942C17.3427 18.186 17.7384 18.186 17.9825 17.942C18.2265 17.6979 18.2265 17.3022 17.9825 17.0581L2.98247 2.05808C2.73839 1.814 2.34266 1.814 2.09859 2.05808C1.85451 2.30216 1.85451 2.69788 2.09859 2.94196L5.22391 6.06729C5.00323 6.50478 4.85712 6.9794 4.80038 7.47934L4.42772 10.7627C4.3606 11.3541 4.11119 11.918 3.70648 12.3935C2.79229 13.4674 3.66202 15 5.18567 15ZM12.4768 16.7263C12.0957 17.666 11.1305 18.3334 10 18.3334C8.8696 18.3334 7.90442 17.666 7.52328 16.7263C7.5074 16.6871 7.50004 16.645 7.50004 16.6028C7.50004 16.4079 7.65797 16.25 7.85278 16.25H12.1473C12.3421 16.25 12.5 16.4079 12.5 16.6028C12.5 16.645 12.4927 16.6871 12.4768 16.7263Z" fill="#4E445B"/>
</g>
</g>
</svg>
