<svg width="14" height="14" viewBox="0 0 14 14" fill="none" xmlns="http://www.w3.org/2000/svg">
<g id="Group">
<path id="Vector" d="M7.24108 12.2727L4.48434 9.51601L1.72761 6.75927C1.64714 6.67871 1.58764 6.57965 1.55432 6.47077C1.52099 6.36189 1.51485 6.24649 1.53644 6.13469C1.55804 6.02289 1.60669 5.91808 1.67817 5.82943C1.74964 5.74079 1.84174 5.67101 1.94642 5.6262L5.61254 4.05481C5.69673 4.01877 5.77298 3.9665 5.83695 3.90097C5.90092 3.83545 5.95135 3.75796 5.98536 3.67293L6.87941 1.43814C6.92224 1.33113 6.99095 1.23642 7.07938 1.16249C7.1678 1.08856 7.27318 1.03771 7.38609 1.01451C7.49899 0.991307 7.61588 0.996472 7.7263 1.02954C7.83671 1.06261 7.9372 1.12255 8.01876 1.204L12.7964 5.98159C12.8778 6.06315 12.9377 6.16364 12.9708 6.27405C13.0039 6.38447 13.009 6.50136 12.9858 6.61426C12.9626 6.72717 12.9118 6.83255 12.8379 6.92098C12.7639 7.0094 12.6692 7.07811 12.5622 7.12094L10.3274 8.01499C10.2424 8.049 10.1649 8.09943 10.0994 8.1634C10.0339 8.22737 9.98158 8.30362 9.94554 8.38781L8.37415 12.0539C8.32934 12.1586 8.25956 12.2507 8.17092 12.3222C8.08227 12.3937 7.97746 12.4423 7.86566 12.4639C7.75386 12.4855 7.63846 12.4794 7.52958 12.446C7.4207 12.4127 7.32164 12.3532 7.24108 12.2727Z" fill="#4E445B"/>
<path id="Vector_2" d="M1 13.0002L4.48424 9.516M4.48424 9.516L7.24097 12.2727C7.32154 12.3532 7.42059 12.4127 7.52948 12.446C7.63836 12.4794 7.75375 12.4855 7.86555 12.4639C7.97736 12.4423 8.08217 12.3937 8.17081 12.3222C8.25946 12.2507 8.32924 12.1586 8.37405 12.0539L9.94544 8.38781C9.98147 8.30362 10.0337 8.22736 10.0993 8.16339C10.1648 8.09942 10.2423 8.049 10.3273 8.01499L12.5621 7.12094C12.6691 7.07811 12.7638 7.0094 12.8378 6.92097C12.9117 6.83255 12.9625 6.72717 12.9857 6.61426C13.0089 6.50136 13.0038 6.38447 12.9707 6.27405C12.9376 6.16364 12.8777 6.06315 12.7962 5.98159L8.01865 1.204C7.93709 1.12255 7.83661 1.06261 7.72619 1.02954C7.61578 0.996472 7.49888 0.991307 7.38598 1.01451C7.27308 1.03771 7.1677 1.08856 7.07927 1.16249C6.99084 1.23642 6.92214 1.33113 6.87931 1.43814L5.98525 3.67293C5.95125 3.75796 5.90082 3.83545 5.83685 3.90097C5.77288 3.9665 5.69662 4.01877 5.61244 4.05481L1.94632 5.6262C1.84164 5.67101 1.74953 5.74079 1.67806 5.82943C1.60659 5.91808 1.55793 6.02289 1.53634 6.13469C1.51475 6.24649 1.52089 6.36188 1.55421 6.47077C1.58754 6.57965 1.64704 6.67871 1.72751 6.75927L4.48424 9.516Z" stroke="#4E445B" stroke-width="2" stroke-linecap="round" stroke-linejoin="round"/>
</g>
</svg>
