<svg width="16" height="16" viewBox="0 0 16 16" fill="none" xmlns="http://www.w3.org/2000/svg">
<g id="Group">
<path id="Vector" d="M8.26781 13.8586L5.20477 10.7956L2.14174 7.73254C2.05233 7.64302 1.98622 7.53296 1.94919 7.41198C1.91216 7.291 1.90534 7.16279 1.92933 7.03856C1.95332 6.91433 2.00738 6.79788 2.0868 6.69938C2.16621 6.60089 2.26855 6.52336 2.38486 6.47357L6.45833 4.72758C6.55187 4.68754 6.6366 4.62946 6.70767 4.55665C6.77875 4.48385 6.83478 4.39775 6.87256 4.30327L7.86596 1.82017C7.91355 1.70127 7.98989 1.59604 8.08814 1.51389C8.18639 1.43174 8.30348 1.37525 8.42893 1.34947C8.55438 1.32369 8.68426 1.32943 8.80694 1.36617C8.92963 1.40292 9.04128 1.46952 9.1319 1.56001L14.4403 6.86845C14.5308 6.95907 14.5974 7.07072 14.6342 7.19341C14.6709 7.31609 14.6767 7.44597 14.6509 7.57142C14.6251 7.69687 14.5686 7.81396 14.4865 7.91221C14.4043 8.01046 14.2991 8.0868 14.1802 8.13439L11.6971 9.12778C11.6026 9.16557 11.5165 9.2216 11.4437 9.29268C11.3709 9.36375 11.3128 9.44848 11.2728 9.54202L9.52678 13.6155C9.47699 13.7318 9.39946 13.8341 9.30096 13.9136C9.20247 13.993 9.08601 14.047 8.96179 14.071C8.83756 14.095 8.70935 14.0882 8.58837 14.0512C8.46739 14.0141 8.35733 13.948 8.26781 13.8586Z" fill="white"/>
<path id="Vector_2" d="M1.33325 14.667L5.20463 10.7956M5.20463 10.7956L8.26767 13.8586C8.35718 13.948 8.46724 14.0141 8.58823 14.0512C8.70921 14.0882 8.83742 14.095 8.96164 14.071C9.08587 14.047 9.20232 13.993 9.30082 13.9135C9.39931 13.8341 9.47685 13.7318 9.52664 13.6155L11.2726 9.54202C11.3127 9.44848 11.3707 9.36375 11.4436 9.29267C11.5164 9.2216 11.6025 9.16556 11.6969 9.12778L14.18 8.13439C14.2989 8.0868 14.4042 8.01046 14.4863 7.91221C14.5685 7.81396 14.625 7.69686 14.6507 7.57142C14.6765 7.44597 14.6708 7.31609 14.634 7.19341C14.5973 7.07072 14.5307 6.95907 14.4402 6.86845L9.13176 1.56001C9.04113 1.46952 8.92948 1.40292 8.8068 1.36617C8.68411 1.32943 8.55423 1.32369 8.42879 1.34947C8.30334 1.37525 8.18625 1.43174 8.088 1.51389C7.98975 1.59604 7.91341 1.70127 7.86582 1.82017L6.87242 4.30327C6.83464 4.39774 6.77861 4.48384 6.70753 4.55665C6.63645 4.62945 6.55172 4.68754 6.45818 4.72757L2.38472 6.47357C2.26841 6.52336 2.16607 6.60089 2.08665 6.69938C2.00724 6.79788 1.95318 6.91433 1.92919 7.03856C1.9052 7.16278 1.91201 7.291 1.94904 7.41198C1.98607 7.53296 2.05219 7.64302 2.1416 7.73254L5.20463 10.7956Z" stroke="white" stroke-width="2" stroke-linecap="round" stroke-linejoin="round"/>
</g>
</svg>
