<svg width="18" height="18" viewBox="0 0 18 18" fill="none" xmlns="http://www.w3.org/2000/svg">
<g id="reply-3 1">
<g id="Reply">
<path id="Vector" d="M14.0522 9.8156C12.5931 11.3689 10.4226 12.177 7.59735 12.2185V14.7666C7.59735 14.8609 7.54042 14.9462 7.45317 14.9822C7.36685 15.0186 7.2656 14.998 7.19888 14.9318L2.06824 9.79927C1.97725 9.70828 1.97725 9.56037 2.06824 9.46939L7.19888 4.33688C7.24367 4.29209 7.3034 4.26876 7.36405 4.26876C7.39391 4.26876 7.42471 4.27435 7.45317 4.28649C7.54042 4.32241 7.59735 4.4078 7.59735 4.50205V7.04731C13.7148 6.98292 15.549 4.398 15.5672 4.37141C15.6232 4.28929 15.7263 4.25149 15.822 4.27762C15.9181 4.30422 15.9871 4.3882 15.9932 4.48759C16.0011 4.6117 16.1607 7.57082 14.0522 9.8156Z" fill="#4E445B"/>
</g>
</g>
</svg>
