<svg width="18" height="18" viewBox="0 0 18 18" fill="none" xmlns="http://www.w3.org/2000/svg">
<mask id="mask0_773_15009" style="mask-type:alpha" maskUnits="userSpaceOnUse" x="0" y="0" width="18" height="18">
<rect width="18" height="18" fill="#D9D9D9"/>
</mask>
<g mask="url(#mask0_773_15009)">
<path d="M12.7522 12.8629C13.0757 12.8629 13.35 12.7497 13.575 12.5232C13.8 12.2967 13.9125 12.0217 13.9125 11.6982C13.9125 11.3747 13.7992 11.1004 13.5727 10.8754C13.3463 10.6504 13.0713 10.5379 12.7477 10.5379C12.4242 10.5379 12.15 10.6511 11.925 10.8776C11.7 11.1041 11.5875 11.3791 11.5875 11.7026C11.5875 12.0261 11.7007 12.3004 11.9272 12.5254C12.1536 12.7504 12.4286 12.8629 12.7522 12.8629ZM12.7534 15.1129C13.1511 15.1129 13.5156 15.0254 13.8468 14.8504C14.1781 14.6754 14.45 14.4379 14.6625 14.1379C14.375 13.9629 14.0687 13.8316 13.7437 13.7441C13.4187 13.6566 13.0875 13.6129 12.75 13.6129C12.4125 13.6129 12.0812 13.6566 11.7562 13.7441C11.4312 13.8316 11.125 13.9629 10.8375 14.1379C11.05 14.4379 11.323 14.6754 11.6565 14.8504C11.9901 15.0254 12.3557 15.1129 12.7534 15.1129ZM12.75 17.1004C11.5672 17.1004 10.559 16.6836 9.72539 15.85C8.89176 15.0163 8.47495 14.0081 8.47495 12.8254C8.47495 11.6426 8.89176 10.6345 9.72539 9.80083C10.559 8.9672 11.5672 8.55039 12.75 8.55039C13.9327 8.55039 14.9409 8.9672 15.7745 9.80083C16.6081 10.6345 17.025 11.6426 17.025 12.8254C17.025 14.0081 16.6081 15.0163 15.7745 15.85C14.9409 16.6836 13.9327 17.1004 12.75 17.1004ZM8.84995 17.0816C8.78745 17.0816 8.73433 17.0785 8.69058 17.0723C8.64683 17.066 8.5914 17.0498 8.5243 17.0235C6.7664 16.4998 5.30933 15.4149 4.15308 13.769C2.99683 12.1231 2.4187 10.3086 2.4187 8.32539V4.70664C2.4187 4.28857 2.53895 3.9123 2.77945 3.57783C3.01996 3.24338 3.33096 3.0009 3.71245 2.85039L8.28745 1.12539C8.51245 1.03789 8.7437 0.994141 8.9812 0.994141C9.2187 0.994141 9.44995 1.03789 9.67495 1.12539L14.2875 2.85039C14.6689 3.0009 14.9799 3.24338 15.2205 3.57783C15.461 3.9123 15.5812 4.28857 15.5812 4.70664V7.80039C15.1812 7.55039 14.7281 7.36289 14.2218 7.23789C13.7156 7.11289 13.225 7.05039 12.75 7.05039C11.155 7.05039 9.7937 7.61414 8.6662 8.74164C7.5387 9.86914 6.97495 11.2304 6.97495 12.8254C6.97495 13.4879 7.1687 14.2598 7.5562 15.141C7.9437 16.0223 8.37495 16.6691 8.84995 17.0816Z" fill="#5400A9"/>
</g>
</svg>
