<svg width="18" height="18" viewBox="0 0 18 18" fill="none" xmlns="http://www.w3.org/2000/svg">
<g id="dark_mode">
<mask id="mask0_773_15055" style="mask-type:alpha" maskUnits="userSpaceOnUse" x="0" y="0" width="18" height="18">
<rect id="Bounding box" width="18" height="18" fill="#D9D9D9"/>
</mask>
<g mask="url(#mask0_773_15055)">
<path id="dark_mode_2" d="M9.0001 15.9935C7.0626 15.9935 5.4126 15.3122 4.0501 13.9497C2.6876 12.5872 2.00635 10.9372 2.00635 8.99971C2.00635 7.48721 2.42197 6.14346 3.25322 4.96846C4.08447 3.79346 5.2001 2.95596 6.6001 2.45596C7.2876 2.20596 7.84385 2.24971 8.26885 2.58721C8.69385 2.92471 8.81885 3.52471 8.64385 4.38721C8.61885 4.52471 8.6001 4.65909 8.5876 4.79034C8.5751 4.92159 8.56885 5.05596 8.56885 5.19346C8.56885 6.35596 8.99072 7.35284 9.83447 8.18409C10.6782 9.01534 11.6876 9.43096 12.8626 9.43096C13.0001 9.43096 13.1313 9.42784 13.2563 9.42159C13.3813 9.41534 13.5063 9.39971 13.6313 9.37471C14.5438 9.21221 15.1595 9.36534 15.4782 9.83409C15.797 10.3028 15.8188 10.8747 15.5438 11.5497C15.0188 12.8372 14.1563 13.8997 12.9563 14.7372C11.7563 15.5747 10.4376 15.9935 9.0001 15.9935Z" fill="#5400A9"/>
</g>
</g>
</svg>
