<svg width="18" height="18" viewBox="0 0 18 18" fill="none" xmlns="http://www.w3.org/2000/svg">
<g id="image">
<mask id="mask0_773_15036" style="mask-type:alpha" maskUnits="userSpaceOnUse" x="0" y="0" width="18" height="18">
<rect id="Bounding box" width="18" height="18" fill="#D9D9D9"/>
</mask>
<g mask="url(#mask0_773_15036)">
<path id="image_2" d="M5.1377 13.0502H12.8627C13.0752 13.0502 13.2252 12.9596 13.3127 12.7783C13.4002 12.5971 13.3814 12.4252 13.2564 12.2627L11.1189 9.4127C11.0189 9.2752 10.8877 9.20645 10.7252 9.20645C10.5627 9.20645 10.4314 9.2752 10.3314 9.4127L8.4377 11.9627L7.10645 10.2002C7.00645 10.0627 6.8752 9.99082 6.7127 9.98457C6.5502 9.97832 6.41895 10.0439 6.31895 10.1814L4.74395 12.2627C4.61895 12.4252 4.6002 12.5971 4.6877 12.7783C4.7752 12.9596 4.9252 13.0502 5.1377 13.0502ZM3.7502 16.2377C3.2002 16.2377 2.73145 16.0439 2.34395 15.6564C1.95645 15.2689 1.7627 14.8002 1.7627 14.2502V3.7502C1.7627 3.2002 1.95645 2.73145 2.34395 2.34395C2.73145 1.95645 3.2002 1.7627 3.7502 1.7627H14.2502C14.8002 1.7627 15.2689 1.95645 15.6564 2.34395C16.0439 2.73145 16.2377 3.2002 16.2377 3.7502V14.2502C16.2377 14.8002 16.0439 15.2689 15.6564 15.6564C15.2689 16.0439 14.8002 16.2377 14.2502 16.2377H3.7502Z" fill="#5400A9"/>
</g>
</g>
</svg>
