<svg width="18" height="18" viewBox="0 0 18 18" fill="none" xmlns="http://www.w3.org/2000/svg">
<mask id="mask0_773_15020" style="mask-type:alpha" maskUnits="userSpaceOnUse" x="0" y="0" width="18" height="18">
<rect width="18" height="18" fill="#D9D9D9"/>
</mask>
<g mask="url(#mask0_773_15020)">
<path d="M3.65635 14.2879C3.38135 14.2879 3.14697 14.191 2.95322 13.9973C2.75947 13.8035 2.6626 13.5691 2.6626 13.2941C2.6626 13.0191 2.75947 12.7848 2.95322 12.591C3.14697 12.3973 3.38135 12.3004 3.65635 12.3004H4.18135V7.51914C4.18135 6.44414 4.49697 5.47852 5.12822 4.62227C5.75947 3.76602 6.5876 3.19414 7.6126 2.90664V2.38164C7.6126 1.99414 7.74697 1.66602 8.01572 1.39727C8.28447 1.12852 8.6126 0.994141 9.0001 0.994141C9.3876 0.994141 9.71572 1.12852 9.98447 1.39727C10.2532 1.66602 10.3876 1.99414 10.3876 2.38164V2.90664C11.4126 3.19414 12.2407 3.76914 12.872 4.63164C13.5032 5.49414 13.8188 6.45664 13.8188 7.51914V12.3004H14.3438C14.6188 12.3004 14.8532 12.3973 15.047 12.591C15.2407 12.7848 15.3376 13.0191 15.3376 13.2941C15.3376 13.5691 15.2407 13.8035 15.047 13.9973C14.8532 14.191 14.6188 14.2879 14.3438 14.2879H3.65635ZM9.0001 16.9879C8.5251 16.9879 8.11885 16.8191 7.78135 16.4816C7.44385 16.1441 7.2751 15.7379 7.2751 15.2629H10.7251C10.7251 15.7379 10.5563 16.1441 10.2188 16.4816C9.88135 16.8191 9.4751 16.9879 9.0001 16.9879Z" fill="#5400A9"/>
</g>
</svg>
