<svg width="18" height="18" viewBox="0 0 18 18" fill="none" xmlns="http://www.w3.org/2000/svg">
<mask id="mask0_773_15001" style="mask-type:alpha" maskUnits="userSpaceOnUse" x="0" y="0" width="18" height="18">
<rect width="18" height="18" fill="#D9D9D9"/>
</mask>
<g mask="url(#mask0_773_15001)">
<path d="M9 8.7752C8.05 8.7752 7.24375 8.44395 6.58125 7.78145C5.91875 7.11895 5.5875 6.3127 5.5875 5.3627C5.5875 4.4127 5.91875 3.60645 6.58125 2.94395C7.24375 2.28145 8.05 1.9502 9 1.9502C9.95 1.9502 10.7563 2.28145 11.4188 2.94395C12.0813 3.60645 12.4125 4.4127 12.4125 5.3627C12.4125 6.3127 12.0813 7.11895 11.4188 7.78145C10.7563 8.44395 9.95 8.7752 9 8.7752ZM4.425 16.1439C3.8625 16.1439 3.39062 15.9533 3.00937 15.5721C2.62812 15.1908 2.4375 14.7189 2.4375 14.1564V13.4627C2.4375 12.9502 2.55937 12.4877 2.80313 12.0752C3.04688 11.6627 3.375 11.3502 3.7875 11.1377C4.6125 10.7127 5.4625 10.3939 6.3375 10.1814C7.2125 9.96895 8.1 9.8627 9 9.8627C9.9 9.8627 10.7875 9.96895 11.6625 10.1814C12.5375 10.3939 13.3875 10.7127 14.2125 11.1377C14.625 11.3502 14.9531 11.6627 15.1969 12.0752C15.4406 12.4877 15.5625 12.9502 15.5625 13.4627V14.1564C15.5625 14.7189 15.3719 15.1908 14.9906 15.5721C14.6094 15.9533 14.1375 16.1439 13.575 16.1439H4.425Z" fill="#5400A9"/>
</g>
</svg>
