<svg width="18" height="18" viewBox="0 0 18 18" fill="none" xmlns="http://www.w3.org/2000/svg">
<g id="perm_phone_msg">
<mask id="mask0_773_15028" style="mask-type:alpha" maskUnits="userSpaceOnUse" x="0" y="0" width="18" height="18">
<rect id="Bounding box" width="18" height="18" fill="#D9D9D9"/>
</mask>
<g mask="url(#mask0_773_15028)">
<path id="perm_phone_msg_2" d="M9.5249 9.7502C9.3749 9.9002 9.1999 9.93145 8.9999 9.84395C8.7999 9.75645 8.6999 9.60645 8.6999 9.39395V2.4377C8.6999 2.2002 8.78428 1.99707 8.95303 1.82832C9.12178 1.65957 9.3249 1.5752 9.5624 1.5752H15.4874C15.7249 1.5752 15.928 1.65957 16.0968 1.82832C16.2655 1.99707 16.3499 2.2002 16.3499 2.4377V6.9002C16.3499 7.1502 16.2687 7.3627 16.1062 7.5377C15.9437 7.7127 15.7374 7.8002 15.4874 7.8002H11.4749L9.5249 9.7502ZM15.5624 16.3502C13.7499 16.3502 12.0062 15.9658 10.3312 15.1971C8.65615 14.4283 7.1749 13.4002 5.8874 12.1127C4.5999 10.8252 3.57178 9.34082 2.80303 7.65957C2.03428 5.97832 1.6499 4.2252 1.6499 2.4002C1.6499 2.1502 1.71865 1.95645 1.85615 1.81895C1.99365 1.68145 2.1874 1.6127 2.4374 1.6127H6.1874C6.3624 1.6127 6.5249 1.67207 6.6749 1.79082C6.8249 1.90957 6.9124 2.0502 6.9374 2.2127L7.4999 5.4002C7.5249 5.5627 7.52178 5.7127 7.49053 5.8502C7.45928 5.9877 7.3999 6.1002 7.3124 6.1877L5.3249 8.2127C5.7999 9.0127 6.4249 9.80957 7.1999 10.6033C7.9749 11.3971 8.7749 12.0502 9.5999 12.5627L11.6624 10.5752C11.7624 10.4752 11.8749 10.4064 11.9999 10.3689C12.1249 10.3314 12.2499 10.3252 12.3749 10.3502L15.7124 11.0627C15.8874 11.1002 16.0374 11.1877 16.1624 11.3252C16.2874 11.4627 16.3499 11.6127 16.3499 11.7752V15.5627C16.3499 15.8127 16.2812 16.0064 16.1437 16.1439C16.0062 16.2814 15.8124 16.3502 15.5624 16.3502Z" fill="#5400A9"/>
</g>
</g>
</svg>
