<svg width="24" height="24" viewBox="0 0 24 24" fill="none" xmlns="http://www.w3.org/2000/svg">
<g id="Add Chat">
<path id="Subtract" fill-rule="evenodd" clip-rule="evenodd" d="M2.25 12.015C2.25 6.74712 6.46 2 12.27 2C17.95 2 22.25 6.65699 22.25 11.985C22.25 18.1642 17.21 22 12.25 22C10.61 22 8.79 21.5593 7.33 20.698C6.82 20.3876 6.39 20.1572 5.84 20.3375L3.82 20.9384C3.31 21.0986 2.85 20.698 3 20.1572L3.67 17.9139C3.78 17.6034 3.76 17.2729 3.6 17.0125C2.74 15.4301 2.25 13.6975 2.25 12.015ZM13.3026 8.05263C13.3026 7.47128 12.8314 7 12.25 7C11.6686 7 11.1974 7.47128 11.1974 8.05263V10.9474L8.30263 10.9474C7.72128 10.9474 7.25 11.4186 7.25 12C7.25 12.5814 7.72128 13.0526 8.30263 13.0526H11.1974V15.9474C11.1974 16.5287 11.6686 17 12.25 17C12.8314 17 13.3026 16.5287 13.3026 15.9474L13.3026 13.0526H16.1974C16.7787 13.0526 17.25 12.5814 17.25 12C17.25 11.4186 16.7787 10.9474 16.1974 10.9474H13.3026V8.05263Z" fill="white"/>
</g>
</svg>
