<svg width="22" height="22" viewBox="0 0 22 22" fill="none" xmlns="http://www.w3.org/2000/svg">
<g id="fluent:qr-code-28-regular">
<g id="Group">
<path id="Vector" d="M8.44646 11.7855C8.91533 11.7855 9.36499 11.9718 9.69653 12.3033C10.0281 12.6348 10.2143 13.0845 10.2143 13.5534V17.8748C10.2143 18.3437 10.0281 18.7933 9.69653 19.1249C9.36499 19.4564 8.91533 19.6426 8.44646 19.6426H4.12503C3.65617 19.6426 3.20651 19.4564 2.87497 19.1249C2.54343 18.7933 2.35718 18.3437 2.35718 17.8748V13.5534C2.35718 13.0845 2.54343 12.6348 2.87497 12.3033C3.20651 11.9718 3.65617 11.7855 4.12503 11.7855H8.44646ZM14.4061 11.7855V14.4043H17.0241V17.0239H14.4061V19.6419H11.7857V17.0231H14.4045V14.4043H11.7857V11.7855H14.4053H14.4061ZM19.6429 17.0231V19.6426H17.0241V17.0239H19.6429V17.0231ZM8.44646 12.9641H4.12503C3.96875 12.9641 3.81886 13.0262 3.70835 13.1367C3.59783 13.2472 3.53575 13.3971 3.53575 13.5534V17.8748C3.53575 18.2001 3.79975 18.4641 4.12503 18.4641H8.44646C8.60275 18.4641 8.75264 18.402 8.86315 18.2915C8.97366 18.181 9.03575 18.0311 9.03575 17.8748V13.5534C9.03575 13.3971 8.97366 13.2472 8.86315 13.1367C8.75264 13.0262 8.60275 12.9641 8.44646 12.9641ZM7.46432 14.5355V16.8926H5.10718V14.5355H7.46432ZM19.6429 11.7855V14.4043H17.0241V11.7855H19.6429ZM8.44646 2.35693C8.91533 2.35693 9.36499 2.54319 9.69653 2.87473C10.0281 3.20626 10.2143 3.65593 10.2143 4.12479V8.44622C10.2143 8.91508 10.0281 9.36474 9.69653 9.69628C9.36499 10.0278 8.91533 10.2141 8.44646 10.2141H4.12503C3.65617 10.2141 3.20651 10.0278 2.87497 9.69628C2.54343 9.36474 2.35718 8.91508 2.35718 8.44622V4.12479C2.35718 3.65593 2.54343 3.20626 2.87497 2.87473C3.20651 2.54319 3.65617 2.35693 4.12503 2.35693H8.44646ZM17.875 2.35693C18.3439 2.35693 18.7936 2.54319 19.1251 2.87473C19.4566 3.20626 19.6429 3.65593 19.6429 4.12479V8.44622C19.6429 8.91508 19.4566 9.36474 19.1251 9.69628C18.7936 10.0278 18.3439 10.2141 17.875 10.2141H13.5536C13.0847 10.2141 12.6351 10.0278 12.3035 9.69628C11.972 9.36474 11.7857 8.91508 11.7857 8.44622V4.12479C11.7857 3.65593 11.972 3.20626 12.3035 2.87473C12.6351 2.54319 13.0847 2.35693 13.5536 2.35693H17.875ZM8.44646 3.5355H4.12503C3.96875 3.5355 3.81886 3.59759 3.70835 3.7081C3.59783 3.81861 3.53575 3.9685 3.53575 4.12479V8.44622C3.53575 8.7715 3.79975 9.0355 4.12503 9.0355H8.44646C8.60275 9.0355 8.75264 8.97342 8.86315 8.86291C8.97366 8.75239 9.03575 8.60251 9.03575 8.44622V4.12479C9.03575 3.9685 8.97366 3.81861 8.86315 3.7081C8.75264 3.59759 8.60275 3.5355 8.44646 3.5355ZM17.875 3.5355H13.5536C13.3973 3.5355 13.2474 3.59759 13.1369 3.7081C13.0264 3.81861 12.9643 3.9685 12.9643 4.12479V8.44622C12.9643 8.7715 13.2283 9.0355 13.5536 9.0355H17.875C18.0313 9.0355 18.1812 8.97342 18.2917 8.86291C18.4022 8.75239 18.4643 8.60251 18.4643 8.44622V4.12479C18.4643 3.9685 18.4022 3.81861 18.2917 3.7081C18.1812 3.59759 18.0313 3.5355 17.875 3.5355ZM7.46432 5.10693V7.46408H5.10718V5.10693H7.46432ZM16.8929 5.10693V7.46408H14.5357V5.10693H16.8929Z" fill="#6D10C1"/>
</g>
</g>
</svg>
