<svg width="66" height="28" viewBox="0 0 66 28" fill="none" xmlns="http://www.w3.org/2000/svg">
<g id="Frame 1">
<path id="Union" fill-rule="evenodd" clip-rule="evenodd" d="M52.5129 13.5006V0H49.6008C47.7945 0 46.6887 0.53267 46.6887 1.98006V28H49.6008C51.5048 28 52.5129 27.4468 52.5129 25.9254V19.5569L52.5362 19.5303L58.2586 28H65.0809L56.8958 16.0966L64.6844 7.00001H57.9989L52.5129 13.5006Z" fill="white"/>
<path id="Vector" d="M42.1706 0V25.9254C42.1706 27.4467 41.1625 28 39.2585 28H36.3464C36.3464 28 36.3464 3.42744 36.3464 1.98006C36.3464 0.53267 37.4523 0 39.2585 0H42.1706Z" fill="white"/>
<path id="Vector_2" d="M20.0022 28C18.6624 28 17.4683 27.7676 16.4202 27.3027C15.372 26.8288 14.5426 26.1315 13.9319 25.2109C13.3303 24.2812 13.0295 23.1237 13.0295 21.7383C13.0295 20.5716 13.2437 19.5918 13.6721 18.7988C14.1005 18.0059 14.6838 17.3678 15.4221 16.8848C16.1604 16.4017 16.9989 16.0371 17.9377 15.791C18.8857 15.5449 19.8791 15.3717 20.9182 15.2715C22.1396 15.1439 23.1239 15.0254 23.8713 14.916C24.6187 14.7975 25.161 14.6243 25.4983 14.3965C25.8355 14.1686 26.0041 13.8314 26.0041 13.3848V13.3027C26.0041 12.4368 25.7307 11.7669 25.1838 11.293C24.6461 10.819 23.8805 10.582 22.887 10.582C21.8388 10.582 21.0048 10.8144 20.385 11.2793C19.7652 11.735 19.3551 12.3092 19.1545 13.0019H13.754C14.0275 11.7259 14.579 10.1855 15.3811 9.25586C16.1832 8.31705 17.2177 7.597 18.4846 7.0957C19.7607 6.58528 21.2372 6.33008 22.9143 6.33008C24.081 6.33008 25.1975 6.4668 26.2639 6.74023C27.3394 7.01367 28.2919 7.4375 29.1213 8.01172C29.9599 8.58594 30.6207 9.32422 31.1038 10.2266C31.5868 11.1198 31.8284 12.1908 31.8284 13.4394V25.6317C31.8284 26.9946 30.8797 27.5494 29.0666 27.6035H26.3049V24.6914H26.1409C25.8036 25.3476 25.3525 25.9264 24.7874 26.4277C24.2222 26.9199 23.5432 27.3073 22.7502 27.5898C21.9573 27.8633 21.0413 28 20.0022 28ZM21.6702 23.9805C22.5269 23.9805 23.2834 23.8118 23.9397 23.4746C24.5959 23.1282 25.1109 22.6634 25.4846 22.0801C25.8583 21.4967 26.0452 20.8359 26.0452 20.0976V17.8691C25.8629 17.9876 25.6122 18.097 25.2932 18.1973C24.9833 18.2884 24.6324 18.375 24.2405 18.457C23.8485 18.5299 23.4566 18.5983 23.0647 18.6621C22.6728 18.7168 22.3173 18.7669 21.9983 18.8125C21.3147 18.9128 20.7177 19.0723 20.2073 19.291C19.6969 19.5098 19.3004 19.806 19.0178 20.1797C18.7353 20.5443 18.594 21 18.594 21.5469C18.594 22.3398 18.8811 22.946 19.4553 23.3652C20.0387 23.7754 20.7769 23.9805 21.6702 23.9805Z" fill="white"/>
<path id="Vector_3" d="M10.2197 6.17252V10.9785H0.444228V6.17252H10.2197ZM0.444343 3.42239C0.444343 1.57227 2.93569 1.57227 2.93569 1.57227L6.26852 1.57227V21.1504C6.26852 21.6881 6.35055 22.1074 6.51461 22.4082C6.67867 22.6999 6.90653 22.9049 7.1982 23.0234C7.49898 23.1419 8.32249 23.2148 8.71442 23.2148C8.98785 23.2148 9.26129 23.192 9.53473 23.1465C9.80817 23.0918 10.0496 23.0426 10.1955 23.0152L10.1915 27.3392C10.1915 27.3392 9.90067 27.5397 9.37203 27.6582C8.84338 27.7858 8.2008 27.8633 7.44429 27.8906C6.04065 27.9453 4.81019 27.7584 3.75289 27.3301C2.70472 26.9017 1.88896 26.2363 1.30563 25.334C0.722297 24.4316 0.435187 23.2923 0.444302 21.916L0.444343 3.42239Z" fill="white"/>
</g>
</svg>
