<svg width="26" height="26" viewBox="0 0 26 26" fill="none" xmlns="http://www.w3.org/2000/svg">
<path fill-rule="evenodd" clip-rule="evenodd" d="M16.4488 5.20035C16.9562 4.69263 17.7791 4.69229 18.287 5.19958L20.53 7.43999C21.038 7.94749 21.0384 8.77081 20.5307 9.27874L9.94257 19.8727C9.76151 20.0539 9.53096 20.1775 9.27987 20.2281L4.55005 21.1811L5.50479 16.4569C5.55543 16.2063 5.67883 15.9762 5.85954 15.7954L16.4488 5.20035Z" fill="white"/>
<path d="M14.95 21.1811H21.45M4.55005 21.1811L9.27987 20.2281C9.53096 20.1775 9.76151 20.0539 9.94257 19.8727L20.5307 9.27874C21.0384 8.77081 21.038 7.94749 20.53 7.43999L18.287 5.19958C17.7791 4.69229 16.9562 4.69263 16.4488 5.20035L5.85954 15.7954C5.67883 15.9762 5.55543 16.2063 5.50479 16.4569L4.55005 21.1811Z" stroke="white" stroke-width="1.6" stroke-linecap="round" stroke-linejoin="round"/>
</svg>
