<svg width="23" height="27" viewBox="0 0 23 27" fill="none" xmlns="http://www.w3.org/2000/svg">
<g id="Frame 3">
<path id="Subtract" fill-rule="evenodd" clip-rule="evenodd" d="M15.1262 20.775C14.9526 20.8933 14.7477 20.9578 14.5374 20.9604C14.3965 20.9613 14.2567 20.9344 14.1261 20.8815C13.9955 20.8286 13.8767 20.7505 13.7765 20.6519C13.6762 20.5532 13.5964 20.4358 13.5417 20.3064C13.487 20.177 13.4584 20.0382 13.4575 19.8978C13.4576 19.6882 13.5199 19.4835 13.6366 19.3091C13.7532 19.1348 13.919 18.9987 14.1131 18.918C14.3072 18.8373 14.521 18.8155 14.7275 18.8554C14.9339 18.8954 15.1239 18.9953 15.2736 19.1426C15.4232 19.2898 15.5258 19.4778 15.5684 19.683C15.611 19.8882 15.5918 20.1013 15.5131 20.2956C15.4344 20.4899 15.2998 20.6567 15.1262 20.775ZM12.0654 20.7753C11.8917 20.8935 11.6867 20.9579 11.4764 20.9604C11.3355 20.9612 11.1958 20.9344 11.0653 20.8814C10.9348 20.8285 10.816 20.7504 10.7158 20.6518C10.6156 20.5531 10.5359 20.4357 10.4813 20.3063C10.4266 20.1769 10.3981 20.0381 10.3973 19.8978C10.3974 19.6882 10.4597 19.4834 10.5764 19.309C10.693 19.1347 10.8589 18.9986 11.0531 18.9179C11.2472 18.8372 11.461 18.8155 11.6675 18.8555C11.874 18.8955 12.064 18.9954 12.2136 19.1428C12.3632 19.2901 12.4657 19.4782 12.5082 19.6835C12.5508 19.8887 12.5314 20.1018 12.4526 20.2961C12.3738 20.4904 12.2391 20.6571 12.0654 20.7753ZM9.00457 20.775C8.83096 20.8933 8.62609 20.9578 8.41576 20.9604C8.27479 20.9613 8.13504 20.9345 8.00445 20.8816C7.87386 20.8287 7.75501 20.7507 7.65472 20.652C7.55443 20.5533 7.47465 20.4359 7.41995 20.3065C7.36525 20.1771 7.33671 20.0382 7.33594 19.8978C7.33603 19.6882 7.39832 19.4835 7.51497 19.3091C7.63162 19.1348 7.79743 18.9987 7.99154 18.918C8.18564 18.8373 8.39937 18.8155 8.60585 18.8554C8.81233 18.8954 9.00234 18.9953 9.15197 19.1426C9.30161 19.2898 9.40417 19.4778 9.44678 19.683C9.4894 19.8882 9.47014 20.1013 9.39146 20.2956C9.31277 20.4899 9.17818 20.6567 9.00457 20.775Z" fill="#00C05A"/>
<path id="Subtract_2" fill-rule="evenodd" clip-rule="evenodd" d="M4.13506 26.1496C5.41337 26.7165 6.86953 27 8.50354 27C9.19866 27 9.84862 26.9498 10.4534 26.8494C6.6539 26.3329 3.74382 23.4207 3.74382 19.9058C3.74382 16.0261 7.28889 12.8808 11.6625 12.8808C16.0357 12.8808 19.5834 16.0258 19.5834 19.9058C19.5828 20.7395 19.4167 21.5649 19.0945 22.3343C19.0945 22.3365 19.0945 22.3387 19.0922 22.3387C16.8406 27.3785 22.9262 28.5984 22.9262 24.1117V9.24255C22.9262 7.71969 22.6317 6.41359 22.0425 5.32425C21.4534 4.22379 20.6475 3.32341 19.6248 2.62312C18.6133 1.92283 17.4517 1.40595 16.1401 1.07247C14.8395 0.739002 13.4778 0.572266 12.055 0.572266C10.0097 0.572266 8.20898 0.883504 6.65277 1.50598C5.10768 2.11735 3.84605 2.9955 2.86786 4.14042C1.88968 5.27422 1.21703 7.15279 0.883556 8.70899H7.46978C7.71433 7.86419 8.21453 7.1639 8.97041 6.60811C9.72628 6.04121 10.7434 5.75776 12.0217 5.75776C13.2333 5.75776 14.167 6.04677 14.8228 6.62479C15.4898 7.20281 15.8233 8.01982 15.8233 9.07581V9.17585C15.8233 9.72052 15.6176 10.1318 15.2063 10.4097C14.7951 10.6876 14.1337 10.8988 13.2222 11.0433C12.3107 11.1767 11.1102 11.3212 9.62068 11.4768C8.35348 11.5991 7.14187 11.8103 5.98583 12.1104C4.84091 12.4105 3.81826 12.8552 2.91788 13.4443C2.01751 14.0334 1.3061 14.8115 0.783659 15.7786C0.261219 16.7457 0 17.9406 0 19.3634C0 21.053 0.36682 22.4647 1.10046 23.5985C1.84521 24.7212 2.85675 25.5716 4.13506 26.1496Z" fill="url(#paint0_linear_3540_8335)"/>
</g>
<defs>
<linearGradient id="paint0_linear_3540_8335" x1="20.3392" y1="3.25749" x2="-0.368287" y2="21.6856" gradientUnits="userSpaceOnUse">
<stop stop-color="#A970FF"/>
<stop offset="1" stop-color="#823AED"/>
</linearGradient>
</defs>
</svg>
