<svg width="24" height="24" viewBox="0 0 24 24" fill="none" xmlns="http://www.w3.org/2000/svg">
<g id="Logout" clip-path="url(#clip0_837_15190)">
<g id="Layer 2">
<g id="log-out">
<path id="Vector" d="M17 6C16.7348 6 16.4804 5.89464 16.2929 5.70711C16.1054 5.51957 16 5.26522 16 5C16 4.73478 16.1054 4.48043 16.2929 4.29289C16.4804 4.10536 16.7348 4 17 4H19C19.2652 4 19.5196 4.10536 19.7071 4.29289C19.8946 4.48043 20 4.73478 20 5V19C20 19.2652 19.8946 19.5196 19.7071 19.7071C19.5196 19.8946 19.2652 20 19 20H17C16.7348 20 16.4804 19.8946 16.2929 19.7071C16.1054 19.5196 16 19.2652 16 19C16 18.7348 16.1054 18.4804 16.2929 18.2929C16.4804 18.1054 16.7348 18 17 18H18V6H17ZM3.18 11.42L6 7.42C6.15294 7.20441 6.385 7.05814 6.64548 7.01317C6.90595 6.9682 7.17363 7.02818 7.39 7.18C7.49815 7.25579 7.59022 7.35224 7.66089 7.46381C7.73157 7.57537 7.77944 7.69982 7.80176 7.82998C7.82407 7.96015 7.82038 8.09344 7.7909 8.22217C7.76142 8.3509 7.70673 8.47252 7.63 8.58L5.91 11H14C14.2652 11 14.5196 11.1054 14.7071 11.2929C14.8946 11.4804 15 11.7348 15 12C15 12.2652 14.8946 12.5196 14.7071 12.7071C14.5196 12.8946 14.2652 13 14 13H6L7.8 15.4C7.87879 15.5051 7.93612 15.6246 7.96871 15.7518C8.00131 15.879 8.00852 16.0114 7.98995 16.1414C7.97138 16.2714 7.92738 16.3965 7.86047 16.5095C7.79357 16.6225 7.70506 16.7212 7.6 16.8C7.4269 16.9298 7.21637 17 7 17C6.84476 17 6.69164 16.9639 6.55279 16.8944C6.41393 16.825 6.29315 16.7242 6.2 16.6L3.2 12.6C3.07193 12.4309 3.00097 12.2254 2.99737 12.0133C2.99377 11.8011 3.05773 11.5934 3.18 11.42Z" fill="#F82C2C"/>
</g>
</g>
</g>
<defs>
<clipPath id="clip0_837_15190">
<rect width="24" height="24" fill="white" transform="matrix(-1 0 0 1 24 0)"/>
</clipPath>
</defs>
</svg>
