<svg width="30" height="30" viewBox="0 0 30 30" fill="none" xmlns="http://www.w3.org/2000/svg">
<g id="fluent:qr-code-28-regular">
<g id="Group">
<path id="Vector" d="M11.5179 16.0715C12.1573 16.0715 12.7705 16.3255 13.2226 16.7776C13.6747 17.2297 13.9286 17.8429 13.9286 18.4822V24.3751C13.9286 25.0144 13.6747 25.6276 13.2226 26.0797C12.7705 26.5318 12.1573 26.7858 11.5179 26.7858H5.62507C4.98571 26.7858 4.37253 26.5318 3.92044 26.0797C3.46834 25.6276 3.21436 25.0144 3.21436 24.3751V18.4822C3.21436 17.8429 3.46834 17.2297 3.92044 16.7776C4.37253 16.3255 4.98571 16.0715 5.62507 16.0715H11.5179ZM19.6447 16.0715V19.6426H23.2147V23.2147H19.6447V26.7847H16.0715V23.2136H19.6426V19.6426H16.0715V16.0715H19.6436H19.6447ZM26.7858 23.2136V26.7858H23.2147V23.2147H26.7858V23.2136ZM11.5179 17.6786H5.62507C5.41195 17.6786 5.20756 17.7633 5.05686 17.914C4.90616 18.0647 4.8215 18.2691 4.8215 18.4822V24.3751C4.8215 24.8186 5.1815 25.1786 5.62507 25.1786H11.5179C11.731 25.1786 11.9354 25.094 12.0861 24.9433C12.2368 24.7926 12.3215 24.5882 12.3215 24.3751V18.4822C12.3215 18.2691 12.2368 18.0647 12.0861 17.914C11.9354 17.7633 11.731 17.6786 11.5179 17.6786ZM10.1786 19.8215V23.0358H6.96436V19.8215H10.1786ZM26.7858 16.0715V19.6426H23.2147V16.0715H26.7858ZM11.5179 3.21436C12.1573 3.21436 12.7705 3.46834 13.2226 3.92044C13.6747 4.37253 13.9286 4.98571 13.9286 5.62507V11.5179C13.9286 12.1573 13.6747 12.7705 13.2226 13.2226C12.7705 13.6747 12.1573 13.9286 11.5179 13.9286H5.62507C4.98571 13.9286 4.37253 13.6747 3.92044 13.2226C3.46834 12.7705 3.21436 12.1573 3.21436 11.5179V5.62507C3.21436 4.98571 3.46834 4.37253 3.92044 3.92044C4.37253 3.46834 4.98571 3.21436 5.62507 3.21436H11.5179ZM24.3751 3.21436C25.0144 3.21436 25.6276 3.46834 26.0797 3.92044C26.5318 4.37253 26.7858 4.98571 26.7858 5.62507V11.5179C26.7858 12.1573 26.5318 12.7705 26.0797 13.2226C25.6276 13.6747 25.0144 13.9286 24.3751 13.9286H18.4822C17.8429 13.9286 17.2297 13.6747 16.7776 13.2226C16.3255 12.7705 16.0715 12.1573 16.0715 11.5179V5.62507C16.0715 4.98571 16.3255 4.37253 16.7776 3.92044C17.2297 3.46834 17.8429 3.21436 18.4822 3.21436H24.3751ZM11.5179 4.8215H5.62507C5.41195 4.8215 5.20756 4.90616 5.05686 5.05686C4.90616 5.20756 4.8215 5.41195 4.8215 5.62507V11.5179C4.8215 11.9615 5.1815 12.3215 5.62507 12.3215H11.5179C11.731 12.3215 11.9354 12.2368 12.0861 12.0861C12.2368 11.9354 12.3215 11.731 12.3215 11.5179V5.62507C12.3215 5.41195 12.2368 5.20756 12.0861 5.05686C11.9354 4.90616 11.731 4.8215 11.5179 4.8215ZM24.3751 4.8215H18.4822C18.2691 4.8215 18.0647 4.90616 17.914 5.05686C17.7633 5.20756 17.6786 5.41195 17.6786 5.62507V11.5179C17.6786 11.9615 18.0386 12.3215 18.4822 12.3215H24.3751C24.5882 12.3215 24.7926 12.2368 24.9433 12.0861C25.094 11.9354 25.1786 11.731 25.1786 11.5179V5.62507C25.1786 5.41195 25.094 5.20756 24.9433 5.05686C24.7926 4.90616 24.5882 4.8215 24.3751 4.8215ZM10.1786 6.96436V10.1786H6.96436V6.96436H10.1786ZM23.0358 6.96436V10.1786H19.8215V6.96436H23.0358Z" fill="white"/>
</g>
</g>
</svg>
