<svg width="24" height="24" viewBox="0 0 24 24" fill="none" xmlns="http://www.w3.org/2000/svg">
<g id="settings">
<mask id="mask0_653_20071" style="mask-type:alpha" maskUnits="userSpaceOnUse" x="0" y="0" width="24" height="24">
<rect id="Bounding box" width="24" height="24" fill="#D9D9D9"/>
</mask>
<g mask="url(#mask0_653_20071)">
<path id="settings_2" d="M9.11286 22.7999C8.86226 22.7999 8.65036 22.6144 8.61724 22.366L8.2578 19.6702C8.23719 19.5156 8.14571 19.3794 8.00999 19.3026C7.9581 19.2732 7.9048 19.2432 7.8501 19.2124C7.80104 19.1848 7.75311 19.1567 7.70631 19.1279C7.55929 19.0377 7.37825 19.015 7.21887 19.081L4.68428 20.1305C4.45071 20.2272 4.18171 20.1343 4.05751 19.9142L1.18753 14.8265C1.06555 14.6102 1.12071 14.3373 1.31708 14.1853L3.43103 12.55C3.55344 12.4553 3.6251 12.3093 3.6251 12.1545V11.749C3.6251 11.5921 3.5515 11.4444 3.4263 11.3499L1.32569 9.7645C1.12515 9.61315 1.06807 9.3365 1.19231 9.11814L4.05742 4.08249C4.18186 3.86377 4.44946 3.77162 4.68219 3.86733L7.13764 4.87724C7.28669 4.93854 7.45558 4.92322 7.59567 4.84352C7.66516 4.80398 7.73747 4.76444 7.8126 4.7249C7.89395 4.68209 7.97199 4.63927 8.04674 4.59646C8.17687 4.52192 8.26113 4.38863 8.28014 4.23988L8.61929 1.58651C8.6512 1.33691 8.86362 1.1499 9.11526 1.1499H14.8845C15.1363 1.1499 15.3489 1.33716 15.3805 1.58697L15.7202 4.26456C15.7391 4.4135 15.8234 4.54699 15.9537 4.6216C16.0284 4.66437 16.1063 4.70714 16.1876 4.7499C16.262 4.78908 16.3337 4.82826 16.4026 4.86744C16.5438 4.9477 16.7141 4.96256 16.8639 4.89977L19.3163 3.87131C19.5496 3.77349 19.8192 3.86529 19.9443 4.08515L22.8085 9.11925C22.9325 9.33714 22.8759 9.61314 22.6763 9.76474L20.5227 11.3998C20.3982 11.4944 20.3251 11.6417 20.3251 11.7981V12.2008C20.3251 12.3577 20.3987 12.5055 20.5239 12.5999L22.6258 14.1863C22.8258 14.3372 22.8832 14.6128 22.7601 14.831L19.8933 19.9131C19.7688 20.1337 19.499 20.2264 19.2652 20.1289L16.7271 19.0697C16.584 19.0099 16.421 19.0197 16.2873 19.0984C16.2381 19.1274 16.1882 19.157 16.1376 19.1874C16.0875 19.2175 16.0381 19.2468 15.9894 19.2755C15.8549 19.3548 15.7631 19.4907 15.7426 19.6455L15.3826 22.3655C15.3497 22.6141 15.1377 22.7999 14.8869 22.7999H9.11286ZM11.9751 16.1499C13.1418 16.1499 14.1334 15.7416 14.9501 14.9249C15.7668 14.1082 16.1751 13.1166 16.1751 11.9499C16.1751 10.7832 15.7668 9.79157 14.9501 8.9749C14.1334 8.15824 13.1418 7.7499 11.9751 7.7499C10.8084 7.7499 9.81676 8.15824 9.0001 8.9749C8.18343 9.79157 7.7751 10.7832 7.7751 11.9499C7.7751 13.1166 8.18343 14.1082 9.0001 14.9249C9.81676 15.7416 10.8084 16.1499 11.9751 16.1499Z" fill="#5400A9"/>
</g>
</g>
</svg>
