<svg width="18" height="18" viewBox="0 0 18 18" fill="none" xmlns="http://www.w3.org/2000/svg">
<g id="Chat">
<path id="Chat_2" fill-rule="evenodd" clip-rule="evenodd" d="M0.666748 9.01236C0.666748 4.62244 4.17508 0.666504 9.01675 0.666504C13.7501 0.666504 17.3334 4.54733 17.3334 8.98732C17.3334 14.1367 13.1334 17.3332 9.00008 17.3332C7.63342 17.3332 6.11675 16.966 4.90008 16.2482C4.47508 15.9895 4.11675 15.7975 3.65841 15.9478L1.97508 16.4485C1.55008 16.582 1.16675 16.2482 1.29175 15.7975L1.85008 13.9281C1.94175 13.6693 1.92508 13.3939 1.79175 13.1769C1.07508 11.8583 0.666748 10.4145 0.666748 9.01236ZM7.91675 9.01236C7.91675 9.60491 8.39175 10.0806 8.98341 10.089C9.57508 10.089 10.0501 9.60491 10.0501 9.0207C10.0501 8.42815 9.57508 7.95243 8.98341 7.95243C8.40008 7.94409 7.91675 8.42815 7.91675 9.01236ZM11.7584 9.0207C11.7584 9.60491 12.2334 10.089 12.8251 10.089C13.4167 10.089 13.8917 9.60491 13.8917 9.0207C13.8917 8.42815 13.4167 7.95243 12.8251 7.95243C12.2334 7.95243 11.7584 8.42815 11.7584 9.0207ZM5.14175 10.089C4.55842 10.089 4.07508 9.60491 4.07508 9.0207C4.07508 8.42815 4.55008 7.95243 5.14175 7.95243C5.73342 7.95243 6.20842 8.42815 6.20842 9.0207C6.20842 9.60491 5.73342 10.0806 5.14175 10.089Z" fill="#5400A9"/>
</g>
</svg>
