<svg width="24" height="24" viewBox="0 0 24 24" fill="none" xmlns="http://www.w3.org/2000/svg">
<g id="search">
<path id="Vector" d="M21 21L15.7059 15.7059M17.8235 10.4118C17.8235 11.3851 17.6318 12.3489 17.2593 13.2481C16.8869 14.1474 16.3409 14.9644 15.6527 15.6527C14.9644 16.3409 14.1474 16.8869 13.2481 17.2593C12.3489 17.6318 11.3851 17.8235 10.4118 17.8235C9.43844 17.8235 8.47464 17.6318 7.57541 17.2593C6.67617 16.8869 5.8591 16.3409 5.17086 15.6527C4.48261 14.9644 3.93666 14.1474 3.56419 13.2481C3.19171 12.3489 3 11.3851 3 10.4118C3 8.44604 3.78088 6.56083 5.17086 5.17086C6.56083 3.78088 8.44604 3 10.4118 3C12.3775 3 14.2627 3.78088 15.6527 5.17086C17.0426 6.56083 17.8235 8.44604 17.8235 10.4118Z" stroke="white" stroke-width="2" stroke-linecap="round" stroke-linejoin="round"/>
</g>
</svg>
