<svg width="211" height="64" viewBox="0 0 211 64" fill="none" xmlns="http://www.w3.org/2000/svg">
<path fill-rule="evenodd" clip-rule="evenodd" d="M34.5738 49.7709C34.177 50.0412 33.7088 50.1886 33.2281 50.1947C32.9059 50.1967 32.5864 50.1353 32.288 50.0143C31.9895 49.8933 31.718 49.715 31.4888 49.4894C31.2596 49.2639 31.0772 48.9956 30.9522 48.6998C30.8271 48.404 30.7617 48.0867 30.7598 47.7658C30.76 47.2869 30.9024 46.8188 31.169 46.4203C31.4357 46.0218 31.8147 45.7108 32.2583 45.5263C32.702 45.3418 33.1905 45.292 33.6625 45.3833C34.1344 45.4746 34.5687 45.7031 34.9108 46.0396C35.2528 46.3762 35.4872 46.806 35.5846 47.2749C35.682 47.7439 35.6381 48.2309 35.4583 48.675C35.2784 49.1192 34.9707 49.5005 34.5738 49.7709ZM27.5778 49.7717C27.1808 50.0419 26.7123 50.189 26.2315 50.1947C25.9094 50.1965 25.5901 50.1352 25.2918 50.0141C24.9935 49.8931 24.7221 49.7148 24.4931 49.4892C24.264 49.2637 24.0818 48.9953 23.9569 48.6996C23.8319 48.4039 23.7667 48.0866 23.7649 47.7658C23.7651 47.2868 23.9076 46.8186 24.1743 46.4201C24.441 46.0216 24.8201 45.7105 25.2639 45.5261C25.7076 45.3416 26.1962 45.292 26.6682 45.3835C27.1402 45.475 27.5746 45.7033 27.9165 46.04C28.2585 46.3768 28.4927 46.8069 28.5899 47.2759C28.6872 47.745 28.643 48.2322 28.4629 48.6763C28.2827 49.1204 27.9749 49.5015 27.5778 49.7717ZM20.5816 49.7709C20.1848 50.0412 19.7165 50.1886 19.2357 50.1947C18.9135 50.1968 18.5941 50.1355 18.2956 50.0145C17.9971 49.8936 17.7255 49.7154 17.4962 49.4898C17.267 49.2643 17.0846 48.9958 16.9596 48.7C16.8346 48.4042 16.7694 48.0867 16.7676 47.7658C16.7678 47.2869 16.9102 46.8188 17.1768 46.4203C17.4434 46.0218 17.8224 45.7108 18.2661 45.5263C18.7098 45.3418 19.1983 45.292 19.6702 45.3833C20.1422 45.4746 20.5765 45.7031 20.9185 46.0396C21.2605 46.3762 21.495 46.806 21.5924 47.2749C21.6898 47.7439 21.6458 48.2309 21.4659 48.675C21.2861 49.1192 20.9784 49.5005 20.5816 49.7709Z" fill="#00C05A"/>
<path fill-rule="evenodd" clip-rule="evenodd" d="M9.45156 62.0561C12.3734 63.3519 15.7018 63.9998 19.4367 63.9998C21.0255 63.9998 22.5111 63.8851 23.8936 63.6557C15.2089 62.4751 8.5573 55.8186 8.5573 47.7846C8.5573 38.9167 16.6603 31.7273 26.6571 31.7273C36.653 31.7273 44.762 38.9159 44.762 47.7846C44.7608 49.6901 44.381 51.5767 43.6445 53.3354C43.6445 53.3405 43.6445 53.3455 43.6394 53.3455C38.4929 64.8649 52.4028 67.6535 52.4028 57.398V23.4114C52.4028 19.9306 51.7295 16.9452 50.3829 14.4553C49.0363 11.94 47.1943 9.88196 44.8568 8.28129C42.5447 6.68063 39.8897 5.49918 36.8916 4.73696C33.9189 3.97474 30.8065 3.59363 27.5543 3.59363C22.8794 3.59363 18.7634 4.30503 15.2063 5.72784C11.6747 7.12525 8.79097 9.13244 6.55512 11.7494C4.31926 14.341 2.78178 18.6348 2.01956 22.1919H17.0738C17.6328 20.2609 18.7761 18.6602 20.5038 17.3899C22.2315 16.0941 24.5563 15.4462 27.4781 15.4462C30.2475 15.4462 32.3818 16.1068 33.8808 17.428C35.4052 18.7492 36.1675 20.6166 36.1675 23.0303V23.259C36.1675 24.5039 35.6974 25.444 34.7574 26.0792C33.8173 26.7144 32.3055 27.1971 30.2221 27.5274C28.1387 27.8323 25.3947 28.1626 21.9901 28.5183C19.0937 28.7978 16.3243 29.2805 13.6819 29.9665C11.0649 30.6525 8.72745 31.6688 6.66945 33.0154C4.61145 34.362 2.98537 36.1405 1.79122 38.351C0.597073 40.5614 0 43.2927 0 46.5449C0 50.4068 0.838445 53.6335 2.51533 56.2251C4.21763 58.7912 6.52971 60.7349 9.45156 62.0561Z" fill="url(#paint0_linear_3368_13043)"/>
<path fill-rule="evenodd" clip-rule="evenodd" d="M181.744 30.8586V0H175.087C170.959 0 168.431 1.21753 168.431 4.52584V64H175.087C179.439 64 181.744 62.7354 181.744 59.2581V44.7016L181.797 44.6408L194.877 64H210.47L191.762 36.7922L209.564 16H194.283L181.744 30.8586Z" fill="white"/>
<path d="M158.104 0V59.2581C158.104 62.7354 155.8 64 151.448 64H144.792C144.792 64 144.792 7.83415 144.792 4.52584C144.792 1.21753 147.319 0 151.448 0H158.104Z" fill="white"/>
<path d="M107.434 64C104.371 64 101.642 63.4687 99.2461 62.4062C96.8503 61.3229 94.9544 59.7291 93.5586 57.625C92.1836 55.5 91.4961 52.8541 91.4961 49.6875C91.4961 47.0208 91.9857 44.7812 92.9648 42.9687C93.944 41.1562 95.2773 39.6979 96.9648 38.5937C98.6523 37.4896 100.569 36.6562 102.715 36.0937C104.882 35.5312 107.152 35.1354 109.527 34.9062C112.319 34.6146 114.569 34.3437 116.277 34.0937C117.986 33.8229 119.225 33.4271 119.996 32.9062C120.767 32.3854 121.152 31.6146 121.152 30.5937V30.4062C121.152 28.4271 120.527 26.8958 119.277 25.8125C118.048 24.7292 116.298 24.1875 114.027 24.1875C111.632 24.1875 109.725 24.7187 108.309 25.7812C106.892 26.8229 105.954 28.1354 105.496 29.7187H93.1521C93.7771 26.8021 95.0378 23.2812 96.8711 21.1562C98.7044 19.0104 101.069 17.3646 103.965 16.2187C106.882 15.0521 110.257 14.4688 114.09 14.4688C116.756 14.4688 119.309 14.7812 121.746 15.4062C124.204 16.0312 126.382 17 128.277 18.3125C130.194 19.625 131.704 21.3125 132.809 23.375C133.913 25.4167 134.465 27.8646 134.465 30.7187V58.5868C134.465 61.7019 132.296 62.9702 128.152 63.0937H121.84V56.4375H121.465C120.694 57.9375 119.663 59.2604 118.371 60.4062C117.079 61.5312 115.527 62.4166 113.715 63.0625C111.902 63.6875 109.809 64 107.434 64ZM111.246 54.8125C113.204 54.8125 114.934 54.4271 116.434 53.6562C117.934 52.8646 119.111 51.8021 119.965 50.4687C120.819 49.1354 121.246 47.625 121.246 45.9375V40.8437C120.829 41.1146 120.256 41.3646 119.527 41.5937C118.819 41.8021 118.017 42 117.121 42.1875C116.225 42.3542 115.329 42.5104 114.434 42.6562C113.538 42.7812 112.725 42.8958 111.996 43C110.434 43.2292 109.069 43.5937 107.902 44.0937C106.736 44.5937 105.829 45.2708 105.184 46.125C104.538 46.9583 104.215 48 104.215 49.25C104.215 51.0625 104.871 52.4479 106.184 53.4062C107.517 54.3437 109.204 54.8125 111.246 54.8125Z" fill="white"/>
<path d="M85.0732 14.1084V25.0935H62.7293V14.1084H85.0732ZM62.7296 7.82236C62.7296 3.59351 68.4241 3.59351 68.4241 3.59351L76.042 3.59351V48.3435C76.042 49.5727 76.2295 50.531 76.6045 51.2185C76.9795 51.8852 77.5003 52.3539 78.167 52.6247C78.8545 52.8956 80.7368 53.0622 81.6326 53.0622C82.2576 53.0622 82.8826 53.0102 83.5076 52.906C84.1326 52.781 84.6845 52.6685 85.0179 52.606L85.0089 62.4893C85.0089 62.4893 84.344 62.9476 83.1357 63.2185C81.9274 63.5101 80.4586 63.6872 78.7295 63.7497C75.5211 63.8747 72.7086 63.4476 70.292 62.4685C67.8961 61.4893 66.0316 59.9685 64.6982 57.906C63.3649 55.8435 62.7087 53.2393 62.7295 50.0935L62.7296 7.82236Z" fill="white"/>
<defs>
<linearGradient id="paint0_linear_3368_13043" x1="46.4896" y1="9.73128" x2="-0.841786" y2="51.8527" gradientUnits="userSpaceOnUse">
<stop stop-color="#A970FF"/>
<stop offset="1" stop-color="#823AED"/>
</linearGradient>
</defs>
</svg>
