<svg width="211" height="65" viewBox="0 0 211 65" fill="none" xmlns="http://www.w3.org/2000/svg">
<path fill-rule="evenodd" clip-rule="evenodd" d="M34.5738 49.8998C34.177 50.1702 33.7088 50.3176 33.2281 50.3236C32.9059 50.3256 32.5864 50.2643 32.288 50.1433C31.9895 50.0223 31.718 49.8439 31.4888 49.6184C31.2596 49.3928 31.0772 49.1245 30.9522 48.8288C30.8271 48.533 30.7617 48.2156 30.7598 47.8947C30.76 47.4158 30.9024 46.9478 31.169 46.5493C31.4357 46.1508 31.8147 45.8397 32.2583 45.6552C32.702 45.4707 33.1905 45.4209 33.6625 45.5123C34.1344 45.6036 34.5687 45.832 34.9108 46.1686C35.2528 46.5052 35.4872 46.9349 35.5846 47.4039C35.682 47.8728 35.6381 48.3599 35.4583 48.804C35.2784 49.2481 34.9707 49.6294 34.5738 49.8998ZM27.5778 49.9006C27.1808 50.1708 26.7123 50.3179 26.2315 50.3236C25.9094 50.3255 25.5901 50.2641 25.2918 50.1431C24.9935 50.022 24.7221 49.8437 24.4931 49.6182C24.264 49.3926 24.0818 49.1243 23.9569 48.8286C23.8319 48.5329 23.7667 48.2155 23.7649 47.8947C23.7651 47.4158 23.9076 46.9476 24.1743 46.5491C24.441 46.1505 24.8201 45.8395 25.2639 45.655C25.7076 45.4706 26.1962 45.421 26.6682 45.5125C27.1402 45.6039 27.5746 45.8323 27.9165 46.169C28.2585 46.5057 28.4927 46.9358 28.5899 47.4049C28.6872 47.874 28.643 48.3612 28.4629 48.8053C28.2827 49.2493 27.9749 49.6305 27.5778 49.9006ZM20.5816 49.8998C20.1848 50.1702 19.7165 50.3176 19.2357 50.3236C18.9135 50.3257 18.5941 50.2644 18.2956 50.1435C17.9971 50.0225 17.7255 49.8444 17.4962 49.6188C17.267 49.3932 17.0846 49.1248 16.9596 48.829C16.8346 48.5332 16.7694 48.2157 16.7676 47.8947C16.7678 47.4158 16.9102 46.9478 17.1768 46.5493C17.4434 46.1508 17.8224 45.8397 18.2661 45.6552C18.7098 45.4707 19.1983 45.4209 19.6702 45.5123C20.1422 45.6036 20.5765 45.832 20.9185 46.1686C21.2605 46.5052 21.495 46.9349 21.5924 47.4039C21.6898 47.8728 21.6458 48.3599 21.4659 48.804C21.2861 49.2481 20.9784 49.6294 20.5816 49.8998Z" fill="#00C05A"/>
<path fill-rule="evenodd" clip-rule="evenodd" d="M9.45156 62.1851C12.3734 63.4808 15.7018 64.1287 19.4367 64.1287C21.0255 64.1287 22.5111 64.0141 23.8936 63.7847C15.2089 62.604 8.5573 55.9476 8.5573 47.9135C8.5573 39.0457 16.6603 31.8563 26.6571 31.8563C36.653 31.8563 44.762 39.0449 44.762 47.9135C44.7608 49.8191 44.381 51.7057 43.6445 53.4644C43.6445 53.4694 43.6445 53.4745 43.6394 53.4745C38.4929 64.9939 52.4028 67.7824 52.4028 57.527V23.5404C52.4028 20.0596 51.7295 17.0742 50.3829 14.5843C49.0363 12.0689 47.1943 10.0109 44.8568 8.41026C42.5447 6.80959 39.8897 5.62815 36.8916 4.86593C33.9189 4.10371 30.8065 3.7226 27.5543 3.7226C22.8794 3.7226 18.7634 4.434 15.2063 5.85681C11.6747 7.25422 8.79097 9.26141 6.55512 11.8784C4.31926 14.4699 2.78178 18.7638 2.01956 22.3208H17.0738C17.6328 20.3899 18.7761 18.7892 20.5038 17.5188C22.2315 16.223 24.5563 15.5752 27.4781 15.5752C30.2475 15.5752 32.3818 16.2357 33.8808 17.5569C35.4052 18.8781 36.1675 20.7456 36.1675 23.1593V23.3879C36.1675 24.6329 35.6974 25.573 34.7574 26.2082C33.8173 26.8433 32.3055 27.3261 30.2221 27.6564C28.1387 27.9613 25.3947 28.2916 21.9901 28.6473C19.0937 28.9268 16.3243 29.4095 13.6819 30.0955C11.0649 30.7815 8.72745 31.7978 6.66945 33.1444C4.61145 34.491 2.98537 36.2695 1.79122 38.4799C0.597073 40.6904 0 43.4217 0 46.6738C0 50.5358 0.838445 53.7625 2.51533 56.3541C4.21763 58.9202 6.52971 60.8639 9.45156 62.1851Z" fill="url(#paint0_linear_3368_13070)"/>
<path fill-rule="evenodd" clip-rule="evenodd" d="M181.744 30.9875V0.128906H175.087C170.959 0.128906 168.431 1.34644 168.431 4.65475V64.1289H175.087C179.439 64.1289 181.744 62.8643 181.744 59.387V44.8305L181.797 44.7697L194.877 64.1289H210.47L191.762 36.9211L209.564 16.1289H194.283L181.744 30.9875Z" fill="#777777"/>
<path d="M158.104 0.128906V59.387C158.104 62.8643 155.8 64.1289 151.448 64.1289H144.792C144.792 64.1289 144.792 7.96306 144.792 4.65475C144.792 1.34644 147.319 0.128906 151.448 0.128906H158.104Z" fill="#777777"/>
<path d="M107.434 64.1289C104.371 64.1289 101.642 63.5977 99.2461 62.5352C96.8503 61.4519 94.9544 59.8581 93.5586 57.7539C92.1836 55.629 91.4961 52.9831 91.4961 49.8165C91.4961 47.1498 91.9857 44.9102 92.9648 43.0977C93.944 41.2852 95.2773 39.8269 96.9648 38.7227C98.6523 37.6185 100.569 36.7852 102.715 36.2227C104.882 35.6602 107.152 35.2644 109.527 35.0352C112.319 34.7435 114.569 34.4727 116.277 34.2227C117.986 33.9519 119.225 33.556 119.996 33.0352C120.767 32.5144 121.152 31.7435 121.152 30.7227V30.5352C121.152 28.556 120.527 27.0248 119.277 25.9415C118.048 24.8581 116.298 24.3165 114.027 24.3165C111.632 24.3165 109.725 24.8477 108.309 25.9102C106.892 26.9519 105.954 28.2644 105.496 29.8477H93.1521C93.7771 26.931 95.0378 23.4102 96.8711 21.2852C98.7044 19.1394 101.069 17.4935 103.965 16.3477C106.882 15.181 110.257 14.5977 114.09 14.5977C116.756 14.5977 119.309 14.9102 121.746 15.5352C124.204 16.1602 126.382 17.129 128.277 18.4415C130.194 19.754 131.704 21.4415 132.809 23.504C133.913 25.5456 134.465 27.9935 134.465 30.8477V58.7157C134.465 61.8309 132.296 63.0991 128.152 63.2227H121.84V56.5664H121.465C120.694 58.0664 119.663 59.3894 118.371 60.5352C117.079 61.6602 115.527 62.5456 113.715 63.1914C111.902 63.8164 109.809 64.1289 107.434 64.1289ZM111.246 54.9414C113.204 54.9414 114.934 54.556 116.434 53.7852C117.934 52.9935 119.111 51.931 119.965 50.5977C120.819 49.2644 121.246 47.7539 121.246 46.0664V40.9727C120.829 41.2435 120.256 41.4935 119.527 41.7227C118.819 41.931 118.017 42.129 117.121 42.3165C116.225 42.4831 115.329 42.6394 114.434 42.7852C113.538 42.9102 112.725 43.0248 111.996 43.129C110.434 43.3581 109.069 43.7227 107.902 44.2227C106.736 44.7227 105.829 45.3998 105.184 46.254C104.538 47.0873 104.215 48.1289 104.215 49.3789C104.215 51.1914 104.871 52.5769 106.184 53.5352C107.517 54.4727 109.204 54.9414 111.246 54.9414Z" fill="#777777"/>
<path d="M85.0732 14.2373V25.2225H62.7293V14.2373H85.0732ZM62.7296 7.95133C62.7296 3.72248 68.4241 3.72247 68.4241 3.72247L76.042 3.72248V48.4725C76.042 49.7016 76.2295 50.66 76.6045 51.3475C76.9795 52.0141 77.5003 52.4829 78.167 52.7537C78.8545 53.0245 80.7368 53.1912 81.6326 53.1912C82.2576 53.1912 82.8826 53.1391 83.5076 53.035C84.1326 52.91 84.6845 52.7975 85.0179 52.735L85.0089 62.6183C85.0089 62.6183 84.344 63.0766 83.1357 63.3474C81.9274 63.6391 80.4586 63.8162 78.7295 63.8787C75.5211 64.0037 72.7086 63.5766 70.292 62.5974C67.8961 61.6183 66.0316 60.0975 64.6982 58.035C63.3649 55.9725 62.7087 53.3683 62.7295 50.2225L62.7296 7.95133Z" fill="#777777"/>
<defs>
<linearGradient id="paint0_linear_3368_13070" x1="46.4896" y1="9.86025" x2="-0.841786" y2="51.9817" gradientUnits="userSpaceOnUse">
<stop stop-color="#A970FF"/>
<stop offset="1" stop-color="#823AED"/>
</linearGradient>
</defs>
</svg>
